<?xml version="1.0" standalone="no"?>
<!DOCTYPE svg PUBLIC "-//W3C//DTD SVG 1.1//EN" "http://www.w3.org/Graphics/SVG/1.1/DTD/svg11.dtd" >
<svg xmlns="http://www.w3.org/2000/svg">
<metadata></metadata>
<defs>
<font id="slabblackblackregular" horiz-adv-x="1458" >
<font-face units-per-em="2048" ascent="1638" descent="-410" />
<missing-glyph horiz-adv-x="522" />
<glyph horiz-adv-x="2048" />
<glyph horiz-adv-x="2048" />
<glyph unicode="&#xd;" horiz-adv-x="681" />
<glyph unicode=" "  horiz-adv-x="522" />
<glyph unicode="&#x09;" horiz-adv-x="522" />
<glyph unicode="&#xa0;" horiz-adv-x="522" />
<glyph unicode="!" horiz-adv-x="673" d="M117 1348v86h440v-86l-102 -856h-215zM147 0v379h379v-379h-379z" />
<glyph unicode="&#x22;" horiz-adv-x="1017" d="M94 1331v103h385v-103l-112 -620h-160zM588 1331v103h385v-103l-113 -620h-160z" />
<glyph unicode="#" horiz-adv-x="1712" d="M82 326v309h278l48 196h-213v310h286l72 293h360l-57 -293h188l72 293h381l-72 -293h205v-310h-278l-47 -196h213v-309h-289l-78 -326h-381l78 326h-182l-78 -326h-381l78 326h-203zM705 604h239l62 258h-240z" />
<glyph unicode="$" horiz-adv-x="1427" d="M84 473h367q2 -80 7 -112.5t13 -41.5q8 -8 29.5 -12t66.5 -4h43v260l-233 25q-68 8 -115 26.5t-80 51.5q-41 41 -61.5 114.5t-20.5 220.5q0 135 26 224.5t75 138.5q33 33 86 51.5t135 18.5h139v184h309v-184h109q100 0 160.5 -16.5t93.5 -49.5q45 -45 64.5 -125 t21.5 -264h-367q-2 68 -7 97.5t-13 37.5t-27.5 12t-58.5 4h-25v-247l242 -25q74 -8 117 -26.5t75 -51.5q41 -41 62.5 -114.5t21.5 -216.5q0 -147 -25.5 -238.5t-74.5 -140.5q-33 -33 -65.5 -51.5t-118.5 -18.5h-185v-205h-309v205h-141q-96 0 -155.5 14.5t-98.5 53.5 q-45 45 -63.5 131t-18.5 274zM483 1024q0 -33 4.5 -59.5t12.5 -34.5t29.5 -12.5t72.5 -10.5l8 -2v225h-32q-37 0 -55.5 -2t-24.5 -8q-8 -8 -11.5 -34.5t-3.5 -61.5zM821 303h19q45 0 68.5 3t31.5 11t12 39t4 70q0 31 -4 55.5t-12 32.5t-33.5 14.5t-68.5 10.5l-17 2v-238z " />
<glyph unicode="%" horiz-adv-x="1820" d="M78 1042q0 164 20.5 239t57.5 108q27 25 60.5 35t96.5 10h189q63 0 97 -10.5t60 -34.5q37 -33 57.5 -108t20.5 -239t-20.5 -238.5t-57.5 -107.5q-27 -25 -60.5 -35t-96.5 -10h-189q-63 0 -97 10.5t-60 34.5q-37 33 -57.5 108t-20.5 238zM272 -6l525 743l475 703h276 l-522 -744l-477 -702h-277zM319 1042q0 -88 5.5 -119.5t11.5 -35.5q8 -8 28.5 -11.5t41.5 -3.5h4q20 0 40.5 3.5t28.5 11.5q6 4 11.5 35.5t5.5 119.5t-5.5 120t-11.5 36q-8 8 -28.5 11t-40.5 3h-4q-20 0 -41 -3t-29 -11q-6 -4 -11.5 -36t-5.5 -120zM1083 391q0 164 20.5 239 t57.5 107q27 25 60.5 35t97.5 10h188q63 0 97 -10t61 -35q37 -33 57.5 -107.5t20.5 -238.5t-20.5 -238.5t-57.5 -107.5q-27 -25 -60.5 -35t-97.5 -10h-188q-63 0 -97 10t-61 35q-37 33 -57.5 107.5t-20.5 238.5zM1325 391q0 -88 5 -119.5t11 -35.5q8 -8 29 -11.5t41 -3.5h4 q20 0 41 3t29 12q6 4 11 35.5t5 119.5t-5 120t-11 36q-8 8 -28.5 11t-41.5 3h-4q-20 0 -40.5 -3t-29.5 -11q-6 -4 -11 -36t-5 -120z" />
<glyph unicode="&#x26;" horiz-adv-x="1624" d="M115 451q0 121 12 179t63 107q23 20 66 43t109 37q-18 45 -26.5 102.5t-8.5 143.5q0 111 17.5 180.5t64.5 116.5q39 39 97 56.5t173 17.5h264q121 0 181.5 -17.5t97.5 -54.5q45 -45 62.5 -123t17.5 -256h-381q0 80 -4.5 106.5t-12.5 34.5t-22.5 12.5t-40.5 4.5h-31 q-27 0 -41 -4t-22 -13q-8 -8 -12.5 -27.5t-4.5 -58.5q0 -35 4 -53t13 -37q10 -20 37.5 -57t66.5 -82l96 -111h15l112 162h383v-307h-174l-86 -121l119 -125h162v-307h-400l-123 137h-14q-45 -72 -96 -105.5t-146 -33.5h-231q-100 0 -160.5 16.5t-105.5 61.5 q-47 47 -68.5 128t-21.5 247zM489 449q0 -53 6.5 -87t14.5 -45q8 -12 32.5 -15t61.5 -3h2q37 0 58.5 9t42.5 38l20 29l-154 182l-34 -6q-12 -2 -21.5 -7t-15.5 -12q-8 -8 -10.5 -23t-2.5 -60z" />
<glyph unicode="'" horiz-adv-x="579" d="M106 1331v103h386v-103l-113 -620h-160z" />
<glyph unicode="(" horiz-adv-x="817" d="M154 563q0 152 9 280t19 173q18 78 99 195.5t268 293.5h237q-92 -170 -133 -256t-51 -137q-14 -63 -20.5 -202.5t-6.5 -346.5t6.5 -346t20.5 -203q10 -51 51 -137t133 -256h-237q-186 176 -267 294t-100 196q-10 45 -19 173t-9 279z" />
<glyph unicode=")" horiz-adv-x="817" d="M31 -379q92 170 133 256t51 137q14 63 20.5 202.5t6.5 346.5t-6.5 346.5t-20.5 202.5q-10 51 -51 137t-133 256h237q186 -176 267 -293.5t100 -195.5q10 -45 19.5 -173t9.5 -280t-9.5 -279.5t-19.5 -172.5q-18 -78 -99 -196t-268 -294h-237z" />
<glyph unicode="*" horiz-adv-x="1048" d="M137 975v221l271 -61v-99zM233 803l189 205l86 -50l-82 -266zM233 1368l193 111l82 -267l-86 -49zM541 958l86 50l188 -205l-192 -111zM541 1212l82 267l192 -111l-188 -205zM641 1036v99l270 61v-221z" />
<glyph unicode="+" horiz-adv-x="1077" d="M82 594v299h307v307h299v-307h307v-299h-307v-307h-299v307h-307z" />
<glyph unicode="," horiz-adv-x="518" d="M16 -276l146 186q20 27 27.5 43t7.5 45v2h-127v379h379v-303q0 -94 -27 -152.5t-90 -113.5l-203 -175z" />
<glyph unicode="-" horiz-adv-x="794" d="M84 516v311h627v-311h-627z" />
<glyph unicode="." horiz-adv-x="518" d="M70 0v379h379v-379h-379z" />
<glyph unicode="/" horiz-adv-x="1181" d="M-61 -328l804 1782h398l-805 -1782h-397z" />
<glyph unicode="0" horiz-adv-x="1454" d="M86 717q0 287 36 427t99 204q45 45 105.5 65.5t173.5 20.5h454q113 0 173.5 -20.5t105.5 -65.5q63 -63 99 -203.5t36 -427.5t-36 -427t-99 -204q-45 -45 -105.5 -65.5t-173.5 -20.5h-454q-113 0 -173.5 20.5t-105.5 65.5q-63 63 -99 203.5t-36 427.5zM528 717 q0 -231 8.5 -295t18.5 -74t32.5 -15t69.5 -5h138q49 0 70.5 5t31.5 15q12 10 20.5 73.5t8.5 295.5q0 231 -8.5 294.5t-20.5 73.5q-10 10 -31.5 15.5t-70.5 5.5h-138q-47 0 -69.5 -5t-32.5 -16q-10 -10 -18.5 -73.5t-8.5 -294.5z" />
<glyph unicode="1" horiz-adv-x="1087" d="M53 1292l377 144h354v-1121h252v-315h-940v315h275v758l-219 -76z" />
<glyph unicode="2" horiz-adv-x="1396" d="M102 0v260q0 143 14.5 226t55.5 135q33 41 83 75.5t124 63.5l366 145q51 20 73 29.5t30 19.5t12 24.5t4 43.5q0 27 -3 48.5t-13 31.5q-8 8 -30.5 10t-53.5 2h-127q-39 0 -58.5 -4t-27.5 -12q-10 -10 -15.5 -51t-5.5 -146h-393q-2 231 19.5 326.5t66.5 140.5 q33 33 93.5 49.5t160.5 16.5h490q82 0 135 -18.5t82 -51.5q49 -49 70.5 -138t17.5 -225q-4 -111 -20.5 -156.5t-45.5 -82.5q-25 -33 -86 -69t-137 -66l-350 -146q-43 -14 -68.5 -32.5t-34.5 -28.5q-8 -12 -12 -32.5t-4 -51.5v-27h414v213h358v-522h-1184z" />
<glyph unicode="3" horiz-adv-x="1361" d="M86 553h401q4 -139 9.5 -171t15.5 -42q8 -8 25.5 -12t62.5 -4h154q27 0 42 4t25 14t17.5 33.5t7.5 75.5q0 51 -6 74.5t-19 35.5q-10 10 -25.5 14.5t-41.5 4.5h-209v294h203q27 0 40 3.5t21 11.5q10 12 17.5 36.5t7.5 69.5t-6.5 66.5t-16.5 32.5q-8 8 -21.5 12t-41.5 4 h-136q-39 0 -59.5 -4t-28.5 -12q-10 -10 -15 -35t-9 -152h-402q2 197 24.5 297.5t80.5 157.5q41 41 103.5 56.5t166.5 15.5h457q94 0 150.5 -18.5t97.5 -59.5q49 -51 70.5 -123t21.5 -154q0 -162 -57.5 -238.5t-168.5 -107.5v-4q117 -29 178.5 -100.5t61.5 -245.5 q0 -104 -27.5 -178t-76.5 -123q-45 -45 -104.5 -63.5t-147.5 -18.5h-467q-109 0 -169.5 16.5t-101.5 57.5q-57 57 -79.5 168.5t-24.5 310.5z" />
<glyph unicode="4" horiz-adv-x="1429" d="M47 422v172q0 68 15.5 113t46.5 90l360 534q33 51 77 77t103 26h488v-734h211v-278h-211v-133h211v-289h-840v289h223v133h-684zM444 700h287v435h-14z" />
<glyph unicode="5" horiz-adv-x="1384" d="M106 492h394q0 -80 6 -114t14 -42t27.5 -12.5t58.5 -4.5h182q29 0 43.5 3.5t22.5 11.5t15.5 35.5t7.5 111.5t-7.5 112t-15.5 36t-22.5 11t-43.5 3h-135q-59 0 -96 -16.5t-76 -48.5l-356 104l49 752h1079v-318h-745l-21 -225l15 -4q45 39 87 59.5t122 20.5h250 q94 0 146 -16.5t91 -55.5q51 -51 68.5 -138t17.5 -235q0 -238 -19.5 -318.5t-68.5 -133.5q-31 -33 -83 -51.5t-134 -18.5h-533q-100 0 -160.5 16.5t-92.5 49.5q-45 45 -67 137t-20 289z" />
<glyph unicode="6" horiz-adv-x="1372" d="M86 717q0 287 36 427t99 204q45 45 105.5 65.5t173.5 20.5h395q104 0 166.5 -15.5t103.5 -56.5q57 -57 78 -163.5t25 -229.5h-410q-2 63 -7 86.5t-15 34.5q-8 8 -29 12t-59 4h-97q-47 0 -69.5 -5t-32.5 -16q-10 -10 -17.5 -62t-9.5 -230q45 43 97.5 65.5t140.5 22.5h164 q106 0 165.5 -17.5t104.5 -60.5q57 -57 77.5 -143.5t20.5 -180.5q0 -166 -23.5 -252t-78.5 -147q-35 -37 -95.5 -58.5t-152.5 -21.5h-442q-113 0 -173.5 20.5t-105.5 65.5q-63 63 -99 203.5t-36 427.5zM524 526q2 -111 9.5 -144.5t15.5 -41.5q10 -10 32.5 -15.5t69.5 -5.5 h121q35 0 52.5 4.5t25.5 12.5t16 29.5t8 78.5t-8 79t-16 30t-25.5 12t-52.5 4h-106q-47 0 -80 -11t-62 -32z" />
<glyph unicode="7" horiz-adv-x="1341" d="M94 870v564h1178v-308l-557 -1126h-445l553 1106h-370v-236h-359z" />
<glyph unicode="8" horiz-adv-x="1384" d="M78 383q0 174 61.5 245.5t177.5 100.5v4q-111 31 -168 105.5t-57 228.5q0 90 21.5 164t70.5 125q41 41 97.5 59.5t150.5 18.5h520q94 0 150.5 -18.5t97.5 -59.5q49 -51 70.5 -125t21.5 -164q0 -154 -57 -228.5t-168 -105.5v-4q117 -29 178.5 -100.5t61.5 -245.5 q0 -104 -28 -178t-77 -123q-45 -45 -104.5 -63.5t-147.5 -18.5h-516q-88 0 -147.5 18.5t-104.5 63.5q-49 49 -76.5 123t-27.5 178zM508 444q0 -55 7 -78.5t20 -35.5q12 -12 27.5 -16.5t45.5 -4.5h168q29 0 45.5 4t28.5 17q12 12 19.5 35.5t7.5 78.5q0 53 -6.5 78t-20.5 39 q-12 12 -28.5 16.5t-45.5 4.5h-168q-31 0 -46 -4.5t-27 -16.5q-14 -14 -20.5 -38.5t-6.5 -78.5zM520 1001q0 -49 8.5 -73.5t18.5 -38.5q10 -10 25.5 -13.5t41.5 -3.5h156q27 0 42 3.5t26 13.5q10 14 18 38.5t8 73.5q0 47 -6 70t-18 35q-8 8 -22.5 13t-47.5 5h-156 q-33 0 -47 -5t-22 -13q-12 -12 -18.5 -34.5t-6.5 -70.5z" />
<glyph unicode="9" horiz-adv-x="1370" d="M80 942q0 174 23.5 262t78.5 150q35 37 95.5 58.5t152.5 21.5h440q113 0 173.5 -20.5t105.5 -65.5q63 -63 99 -203.5t36 -427.5t-36 -427t-99 -204q-45 -45 -105.5 -65.5t-173.5 -20.5h-411q-104 0 -167 15.5t-104 56.5q-57 57 -77.5 163.5t-24.5 229.5h410q2 -63 7 -87 t15 -34q8 -8 28.5 -12t59.5 -4h113q47 0 69.5 5t32.5 15q8 8 16.5 56.5t10.5 211.5q-47 -45 -98.5 -66.5t-139.5 -21.5h-161q-106 0 -166 17.5t-105 60.5q-57 57 -77.5 144.5t-20.5 191.5zM496 977q0 -66 8 -89.5t16 -31.5t25.5 -12t52.5 -4h107q47 0 79.5 11t61.5 32 q-2 127 -9.5 164.5t-15.5 46.5q-10 10 -32.5 15t-69.5 5h-121q-35 0 -52.5 -4t-25.5 -12t-16 -32t-8 -89z" />
<glyph unicode=":" horiz-adv-x="518" d="M70 0v379h379v-379h-379zM70 768v379h379v-379h-379z" />
<glyph unicode=";" horiz-adv-x="518" d="M16 -276l146 186q20 27 27.5 43t7.5 45v2h-127v379h379v-303q0 -94 -27 -152.5t-90 -113.5l-203 -175zM70 768v379h379v-379h-379z" />
<glyph unicode="&#x3c;" horiz-adv-x="995" d="M82 586v315l811 387v-360l-436 -185l436 -184v-360z" />
<glyph unicode="=" horiz-adv-x="1077" d="M82 365v290h913v-290h-913zM82 831v291h913v-291h-913z" />
<glyph unicode="&#x3e;" horiz-adv-x="995" d="M102 199v360l435 184l-435 185v360l811 -387v-315z" />
<glyph unicode="?" horiz-adv-x="1220" d="M72 948q-2 197 19.5 286t66.5 134q33 33 93 49.5t161 16.5h428q82 0 135 -18.5t82 -51.5q49 -49 70.5 -138t17.5 -225q-2 -96 -20.5 -157.5t-84.5 -112.5q-51 -41 -111.5 -63.5t-123.5 -53.5q-31 -14 -45.5 -25t-24.5 -22q-8 -8 -18 -26.5t-15 -48.5h-317v38 q2 115 10 168.5t43 87.5q33 33 74 53.5t82 39.5q47 20 75.5 34.5t43.5 28.5q14 14 17 34.5t3 53.5t-3 48.5t-11 23.5t-25.5 10t-54.5 2h-72q-39 0 -58.5 -4t-27.5 -12t-14 -44t-6 -106h-389zM352 0v379h379v-379h-379z" />
<glyph unicode="@" horiz-adv-x="1802" d="M82 563q0 371 46 529.5t105 220.5q53 55 131 88t250 33h598q166 0 239 -32t124 -83q57 -57 101 -193.5t44 -431.5q0 -260 -27.5 -371.5t-72.5 -158.5q-33 -35 -79 -52.5t-103 -17.5h-140q-84 0 -155.5 32t-114.5 114q-94 -92 -141 -119t-109 -27h-55q-74 0 -119 13.5 t-78 46.5q-45 45 -63.5 131t-18.5 274t22.5 272t72.5 132q33 33 80 47t112 14h62q63 0 112 -21.5t127 -95.5l41 117h291l-12 -225v-496q0 -16 4 -28.5t12 -20.5q6 -6 19.5 -11t33.5 -5q31 0 50.5 7t35.5 27q27 33 39.5 121t12.5 301q0 242 -31 362t-78 167q-39 39 -92 55 t-170 16h-551q-129 0 -183.5 -19.5t-99.5 -64.5q-47 -47 -78.5 -183t-31.5 -464t31.5 -464t80.5 -185q43 -43 100.5 -62.5t180.5 -19.5h909v-139h-932q-172 0 -249.5 32.5t-131.5 88.5q-59 61 -105 220t-46 529zM774 559q0 -104 6 -141t21 -51q12 -10 30.5 -15.5t47.5 -5.5 h30q23 0 49.5 5t57.5 18v383q-27 8 -52.5 13t-45.5 5h-39q-29 0 -47.5 -4t-30.5 -14q-14 -14 -20.5 -51t-6.5 -142z" />
<glyph unicode="A" horiz-adv-x="1597" d="M27 0v319h120l334 986q27 76 63 105.5t109 29.5h291q74 0 110 -30t62 -105l334 -986h121v-319h-703v313h131l-34 123h-365l-33 -123h131v-313h-671zM678 735h209l-92 332h-23z" />
<glyph unicode="B" horiz-adv-x="1470" d="M57 0v319h152v795h-152v320h981q94 0 150.5 -18.5t97.5 -59.5q49 -51 70.5 -123t21.5 -154q0 -162 -57 -238.5t-168 -107.5v-4q117 -29 178.5 -100.5t61.5 -245.5q0 -104 -28 -178t-77 -123q-45 -45 -104.5 -63.5t-147.5 -18.5h-979zM629 309h233q27 0 42.5 4t25.5 15 q10 10 17 31.5t7 91.5t-6 92t-18 35q-10 10 -25.5 14t-42.5 4h-233v-287zM629 866h227q27 0 40 3t22 12q10 12 17 37.5t7 78.5q0 51 -6 76t-16 35q-8 8 -21.5 12t-42.5 4h-227v-258z" />
<glyph unicode="C" horiz-adv-x="1427" d="M82 717q0 295 34 436t97 203q41 41 98.5 59.5t167.5 18.5h490q104 0 166.5 -15.5t103.5 -56.5q57 -57 79.5 -178t24.5 -318h-411q-4 127 -9 170t-16 54q-8 8 -28.5 12t-59.5 4h-176q-47 0 -66.5 -4t-27.5 -12q-10 -10 -17.5 -75t-7.5 -298t7.5 -298t17.5 -75 q8 -8 27.5 -12t66.5 -4h176q45 0 62.5 4t25.5 12q10 10 15.5 50t9.5 179h411q-2 -199 -24.5 -320.5t-79.5 -178.5q-41 -41 -101.5 -57.5t-168.5 -16.5h-490q-111 0 -168 18.5t-98 59.5q-63 61 -97 202.5t-34 436.5z" />
<glyph unicode="D" horiz-adv-x="1515" d="M59 0v319h152v795h-152v320h826q154 0 247 -25t156 -88q74 -74 112 -205t38 -399t-38 -399.5t-112 -204.5q-63 -63 -156.5 -88t-246.5 -25h-826zM631 319h186q70 0 101.5 6.5t46.5 20.5q16 16 23 86t7 285q0 213 -7 283.5t-23 86.5q-14 14 -46 20.5t-102 6.5h-186v-795z " />
<glyph unicode="E" horiz-adv-x="1417" d="M57 0v319h152v795h-152v320h1276v-523h-358v207h-346v-244h297v-294h-297v-265h352v234h358v-549h-1282z" />
<glyph unicode="F" horiz-adv-x="1372" d="M57 0v319h152v795h-152v320h1260v-516h-359v200h-329v-264h297v-295h-297v-240h162v-319h-734z" />
<glyph unicode="G" horiz-adv-x="1445" d="M82 717q0 295 34 436t97 203q41 41 98.5 59.5t167.5 18.5h494q104 0 168.5 -18.5t101.5 -55.5q57 -57 80 -139t25 -279h-412q-2 86 -7 113.5t-16 38.5q-8 8 -26.5 12t-63.5 4h-180q-47 0 -66.5 -4t-27.5 -12q-14 -14 -19.5 -88t-5.5 -289t5.5 -291t19.5 -90 q8 -8 27.5 -12.5t66.5 -4.5h191q43 0 63.5 4.5t28.5 12.5q10 10 16 51t6 117v10h-270v291h682v-174q0 -258 -30 -375t-89 -176q-45 -45 -107.5 -62.5t-162.5 -17.5h-492q-111 0 -168 18.5t-98 59.5q-63 61 -97 202.5t-34 436.5z" />
<glyph unicode="H" horiz-adv-x="1638" d="M57 0v319h152v795h-152v320h705v-320h-133v-235h381v235h-133v320h704v-320h-151v-795h151v-319h-704v319h133v254h-381v-254h133v-319h-705z" />
<glyph unicode="I" horiz-adv-x="849" d="M57 0v319h158v795h-158v320h736v-320h-158v-795h158v-319h-736z" />
<glyph unicode="J" horiz-adv-x="1357" d="M31 578h407q0 -127 5.5 -167t19.5 -55q12 -12 42 -16t81 -4h16q51 0 81 4t42 16q14 14 19.5 52t5.5 139v567h-148v320h715v-320h-148v-539q0 -238 -27.5 -336t-84.5 -155q-49 -49 -122 -66.5t-210 -17.5h-250q-137 0 -209.5 17.5t-122.5 66.5q-57 57 -84.5 156.5 t-27.5 337.5z" />
<glyph unicode="K" horiz-adv-x="1589" d="M57 0v319h152v795h-152v320h699v-316h-127v-241h94l242 241h-121v316h698v-320h-117l-362 -352l379 -443h112v-319h-723v315h113l-223 260h-92v-260h127v-315h-699z" />
<glyph unicode="L" horiz-adv-x="1355" d="M57 0v319h152v795h-152v320h734v-320h-162v-799h313v242h358v-557h-1243z" />
<glyph unicode="M" horiz-adv-x="2138" d="M57 0v319h152v795h-152v320h774q47 0 72 -17.5t33 -66.5l129 -670h18l129 670q8 49 33 66.5t72 17.5h764v-320h-152v-795h152v-319h-686v319h114v699h-20l-217 -936q-10 -45 -31.5 -63.5t-60.5 -18.5h-262q-39 0 -60.5 18.5t-32.5 63.5l-217 936h-20v-699h114v-319h-645z " />
<glyph unicode="N" horiz-adv-x="1695" d="M61 0v319h152v795h-152v320h547q70 0 103.5 -22.5t66.5 -82.5l338 -629h10v414h-141v320h668v-320h-148v-1114h-350q-70 0 -103.5 22.5t-66.5 81.5l-383 713h-10v-498h151v-319h-682z" />
<glyph unicode="O" d="M82 717q0 295 34 436t97 203q41 41 98.5 59.5t167.5 18.5h500q111 0 168 -18.5t98 -59.5q63 -61 97 -202.5t34 -436.5t-33.5 -436.5t-97.5 -202.5q-41 -41 -98 -59.5t-168 -18.5h-500q-111 0 -168 18.5t-98 59.5q-63 61 -97 202.5t-34 436.5zM524 717q0 -236 7.5 -299.5 t17.5 -73.5q8 -8 28.5 -12t65.5 -4h172q45 0 65.5 4t28.5 12q10 10 17.5 74.5t7.5 298.5q0 233 -7 297.5t-18 75.5q-8 8 -28.5 12t-65.5 4h-172q-45 0 -65.5 -4t-28.5 -12q-10 -10 -17.5 -75t-7.5 -298z" />
<glyph unicode="P" horiz-adv-x="1415" d="M57 0v319h152v795h-152v320h942q94 0 161 -17.5t108 -60.5q49 -51 70.5 -127t21.5 -260t-21.5 -260t-70.5 -127q-41 -43 -107.5 -60.5t-161.5 -17.5h-370v-185h162v-319h-734zM629 807h176q45 0 65.5 4t28.5 12q14 14 18.5 44t4.5 96t-4.5 95t-18.5 44q-8 8 -28.5 12 t-65.5 4h-176v-311z" />
<glyph unicode="Q" d="M82 717q0 295 34 436t97 203q41 41 98.5 59.5t167.5 18.5h500q111 0 168 -18.5t98 -59.5q63 -61 97 -202.5t34 -436.5t-33.5 -436.5t-97.5 -202.5q-31 -31 -67.5 -48.5t-94.5 -25.5l78 -199h-332l-71 195h-279q-111 0 -168 18.5t-98 59.5q-63 61 -97 202.5t-34 436.5z M524 713q0 -240 7.5 -303.5t17.5 -73.5q8 -8 28.5 -12.5t65.5 -4.5h8l-90 263h279l75 -238q8 18 13.5 92t5.5 277q0 238 -7 302t-18 75q-8 8 -28.5 12t-65.5 4h-172q-45 0 -65.5 -4t-28.5 -12q-10 -10 -17.5 -75t-7.5 -302z" />
<glyph unicode="R" horiz-adv-x="1513" d="M57 0v319h152v795h-152v320h977q92 0 154.5 -17.5t103.5 -58.5q47 -47 65.5 -118t18.5 -204q0 -190 -55 -256.5t-178 -91.5v-4q106 -25 158.5 -79t54.5 -208q0 -18 1 -38.5t3 -39.5h137v-319h-381q-63 0 -93 10t-48 29q-23 23 -36 83t-19 238q-2 80 -9.5 110t-21.5 44 t-38 20.5t-75 6.5h-147v-222h155v-319h-727zM629 836h188q45 0 65.5 4t28.5 12q14 14 18.5 42t4.5 83t-4 82.5t-19 42.5q-8 8 -28.5 12t-65.5 4h-188v-282z" />
<glyph unicode="S" horiz-adv-x="1406" d="M84 483h393q2 -80 7 -109.5t14 -37.5q8 -8 29.5 -12.5t66.5 -4.5h197q45 0 68.5 3.5t31.5 11.5t12 29.5t4 60.5q0 31 -4 50.5t-12 27.5t-34 14t-69 10l-411 49q-68 8 -115 27t-80 51q-41 41 -61.5 121t-20.5 227q0 135 26 224.5t75 138.5q33 33 86 51.5t135 18.5h536 q100 0 161 -17t93 -49q45 -45 64.5 -130t21.5 -269h-393q-2 68 -7 94.5t-13 34.5t-27.5 12t-58.5 4h-193q-37 0 -55.5 -2t-24.5 -8q-8 -8 -11 -27.5t-3 -54.5q0 -33 4 -51.5t12 -26.5t30 -12t73 -10l411 -50q74 -8 117 -26.5t76 -50.5q41 -41 62.5 -122t21.5 -224 q0 -147 -25.5 -238.5t-74.5 -140.5q-33 -33 -86.5 -51.5t-139.5 -18.5h-573q-96 0 -155.5 14.5t-98.5 53.5q-45 45 -63.5 136t-18.5 279z" />
<glyph unicode="T" horiz-adv-x="1513" d="M51 858v576h1411v-576h-325v264h-170v-803h166v-319h-752v319h166v803h-170v-264h-326z" />
<glyph unicode="U" horiz-adv-x="1619" d="M47 1114v320h715v-320h-144v-575q0 -100 5.5 -138.5t19.5 -52.5q12 -12 42 -16t81 -4h96q51 0 81 4t42 16q14 14 19.5 52t5.5 139v575h-144v320h707v-320h-148v-539q0 -238 -27.5 -336t-84.5 -155q-49 -49 -122 -66.5t-210 -17.5h-342q-137 0 -210 17.5t-122 66.5 q-57 57 -84.5 155.5t-27.5 335.5v539h-148z" />
<glyph unicode="V" horiz-adv-x="1572" d="M27 1114v320h710v-320h-123l174 -704h23l174 704h-123v320h684v-320h-127l-317 -985q-25 -76 -59.5 -105.5t-108.5 -29.5h-295q-74 0 -108.5 29.5t-59.5 105.5l-317 985h-127z" />
<glyph unicode="W" horiz-adv-x="2295" d="M31 1114v320h710v-320h-143l111 -704h20l162 893q14 76 53 105.5t113 29.5h215q74 0 112.5 -30t53.5 -105l161 -893h19l111 704h-144v320h680v-320h-127l-215 -985q-16 -76 -55 -105.5t-113 -29.5h-307q-74 0 -113 29.5t-53 105.5l-125 682h-18l-123 -682 q-14 -76 -53 -105.5t-113 -29.5h-309q-74 0 -113 29.5t-55 105.5l-215 985h-127z" />
<glyph unicode="X" horiz-adv-x="1558" d="M37 0v319h110l328 398l-317 397h-111v320h705v-312h-109l137 -192h19l147 192h-108v312h673v-320h-110l-318 -377l328 -418h111v-319h-715v311h119l-148 211h-20l-156 -211h119v-311h-684z" />
<glyph unicode="Y" horiz-adv-x="1542" d="M23 1114v320h720v-316h-125l158 -246h8l170 246h-125v316h691v-320h-119l-424 -565v-230h162v-319h-744v319h162v224l-416 571h-118z" />
<glyph unicode="Z" horiz-adv-x="1431" d="M78 0v315l735 805h-350v-264h-359v578h1248v-316l-736 -805h373v275h359v-588h-1270z" />
<glyph unicode="[" horiz-adv-x="954" d="M164 -307v1802h698v-297h-301v-1208h301v-297h-698z" />
<glyph unicode="\" horiz-adv-x="1181" d="M41 1454h397l805 -1782h-397z" />
<glyph unicode="]" horiz-adv-x="954" d="M92 -10h301v1208h-301v297h699v-1802h-699v297z" />
<glyph unicode="^" horiz-adv-x="0" d="M168 979v10l307 451h123l307 -451v-10h-162l-208 307l-209 -307h-158z" />
<glyph unicode="_" horiz-adv-x="1073" d="M-10 -133h1093v-291h-1093v291z" />
<glyph unicode="`" horiz-adv-x="1024" d="M233 1526v10h496l172 -260v-10h-268z" />
<glyph unicode="a" horiz-adv-x="1298" d="M70 317q0 111 16 180.5t55 108.5q41 41 106.5 56.5t166.5 15.5q80 0 158.5 -9.5t166.5 -25.5v78q0 68 -4 90.5t-14 32.5q-8 8 -24.5 12t-43.5 4h-78q-27 0 -43 -4t-24 -12q-10 -10 -13 -26.5t-6 -55.5h-372q2 152 17.5 217t51.5 102q35 35 85.5 50.5t131.5 15.5h461 q74 0 127 -15.5t86 -48.5q37 -37 51.5 -98t14.5 -192v-488h125v-305h-529v119q-96 -80 -149 -100.5t-129 -20.5h-127q-76 0 -121 12.5t-78 44.5q-29 29 -47 87.5t-18 174.5zM459 356q0 -27 4 -46t16 -31t30.5 -16.5t43.5 -4.5q35 0 74 9t112 44v154h-106q-76 0 -106.5 -6 t-45.5 -21q-14 -14 -18 -35.5t-4 -46.5z" />
<glyph unicode="b" horiz-adv-x="1339" d="M39 0v305h131v936h-131v305h536v-561q104 100 160 132t129 32h66q90 0 145 -16.5t94 -55.5q55 -55 77 -160.5t22 -343.5t-29 -341t-86 -160q-39 -39 -95.5 -56.5t-135.5 -17.5h-76q-74 0 -130.5 22.5t-140.5 100.5v-121h-536zM575 328q33 -12 64 -18.5t57 -6.5h47 q35 0 56.5 5t36.5 20q18 18 25 64t7 181t-7 181.5t-25 64.5q-14 14 -36 19.5t-57 5.5h-36q-31 0 -63 -7.5t-69 -21.5v-487z" />
<glyph unicode="c" horiz-adv-x="1198" d="M72 573q0 248 26.5 345.5t83.5 154.5q39 41 89.5 57.5t140.5 16.5h424q104 0 149 -24.5t72 -51.5q41 -41 58.5 -132t17.5 -232h-371q0 53 -4 82.5t-15 39.5q-10 10 -24 14.5t-47 4.5h-109q-33 0 -48 -3t-23 -16q-8 -10 -14.5 -58t-6.5 -198t6 -197.5t15 -58.5 q8 -12 23 -15t48 -3h113q33 0 47 4t25 14q10 10 14 40t4 100h371q0 -158 -17.5 -249t-58.5 -132q-27 -27 -72 -51.5t-149 -24.5h-428q-90 0 -140.5 16.5t-89.5 57.5q-57 57 -83.5 154.5t-26.5 344.5z" />
<glyph unicode="d" horiz-adv-x="1339" d="M72 573q0 238 28.5 341.5t85.5 160.5q39 39 95.5 56.5t136.5 17.5h76q72 0 128 -23.5t142 -99.5v215h-131v305h536v-1241h131v-305h-536v162q-104 -102 -160.5 -133t-128.5 -31h-65q-90 0 -145.5 16.5t-94.5 55.5q-55 55 -76.5 160.5t-21.5 342.5zM471 573q0 -135 7 -181 t26 -64q14 -14 35.5 -19.5t56.5 -5.5h37q29 0 60.5 7t70.5 22v487q-33 12 -63.5 18.5t-57.5 6.5h-47q-35 0 -56.5 -5t-35.5 -20q-18 -18 -25.5 -64t-7.5 -182z" />
<glyph unicode="e" horiz-adv-x="1212" d="M72 573q0 248 26.5 345.5t83.5 154.5q39 41 89.5 57.5t140.5 16.5h407q90 0 140.5 -16.5t89.5 -57.5q57 -57 72.5 -156.5t15.5 -341.5v-14q0 -37 -12.5 -51t-53.5 -14h-608q0 -117 6 -155t14 -46q10 -10 34 -14.5t71 -4.5h67q57 0 79 3.5t30 15.5q6 8 9 35.5t3 75.5h361 q0 -123 -17.5 -206t-58.5 -124q-27 -27 -72 -51.5t-149 -24.5h-428q-90 0 -140.5 16.5t-89.5 57.5q-57 57 -83.5 154.5t-26.5 344.5zM463 672h295q0 88 -5 130t-14 50q-8 10 -26.5 14t-65.5 4h-59q-47 0 -70.5 -4t-34.5 -14q-10 -10 -15 -45t-5 -135z" />
<glyph unicode="f" horiz-adv-x="854" d="M68 0v305h131v537h-131v305h131v47q0 106 16 172t57 107q39 39 94.5 56t159.5 17h287v-291h-129q-33 0 -46 -3t-22 -11q-8 -8 -11 -23.5t-3 -46.5v-28h193v-301h-191v-537h141v-305h-677z" />
<glyph unicode="g" horiz-adv-x="1335" d="M72 610q0 205 28.5 306.5t85.5 158.5q39 39 95.5 56.5t136.5 17.5h76q72 0 128 -23.5t142 -99.5v121h536v-305h-131v-836q0 -131 -14 -192.5t-51 -98.5q-33 -33 -86 -48t-127 -15h-541q-70 0 -111.5 15.5t-68.5 41.5q-33 33 -46 93.5t-13 197.5h358q0 -23 2 -37t10 -22 t23.5 -11.5t42.5 -3.5h131q27 0 43 4t24 13q10 10 14.5 32.5t4.5 90.5v153q-104 -100 -160.5 -123.5t-128.5 -23.5h-65q-90 0 -145.5 16t-94.5 55q-55 55 -76.5 159t-21.5 308zM471 602q0 -113 7 -156t26 -61q14 -14 35.5 -19.5t56.5 -5.5h37q29 0 60.5 7.5t70.5 21.5v430 q-33 12 -63.5 18.5t-57.5 6.5h-47q-35 0 -56.5 -5t-35.5 -20q-18 -18 -25.5 -62t-7.5 -155z" />
<glyph unicode="h" horiz-adv-x="1386" d="M39 0v305h131v936h-131v305h536v-569q111 111 167.5 141.5t144.5 30.5h65q74 0 127.5 -15.5t85.5 -48.5q37 -37 51.5 -98t14.5 -192v-490h125v-305h-611v301h80v438q0 33 -5 50.5t-15 27.5t-26.5 15.5t-45.5 5.5h-10q-29 0 -62.5 -6.5t-85.5 -22.5v-508h80v-301h-616z " />
<glyph unicode="i" horiz-adv-x="782" d="M68 0v305h137v537h-137v305h542v-846h138v-301h-680zM184 1286v311h408v-311h-408z" />
<glyph unicode="j" horiz-adv-x="724" d="M29 -39h71q39 0 56.5 3t25.5 11t12.5 26.5t4.5 51.5v789h-138v305h543v-1157q0 -117 -18.5 -174.5t-55.5 -94.5q-33 -33 -87 -53t-158 -20q-70 0 -128.5 8t-127.5 22v283zM178 1286v311h408v-311h-408z" />
<glyph unicode="k" horiz-adv-x="1343" d="M43 0v305h131v936h-131v305h537v-833h90l118 147h-108v287h608v-295h-100l-201 -238l184 -309h134v-305h-396l-225 424h-104v-123h88v-301h-625z" />
<glyph unicode="l" horiz-adv-x="757" d="M43 0v305h137v936h-137v305h543v-1245h137v-301h-680z" />
<glyph unicode="m" horiz-adv-x="2054" d="M68 0v305h131v537h-131v305h536v-170q111 111 167 141.5t144 30.5h58q74 0 127 -15.5t86 -48.5q20 -20 33.5 -47.5t21.5 -70.5q117 117 175.5 149.5t146.5 32.5h57q74 0 127 -15.5t86 -48.5q37 -37 51 -98t14 -192v-490h125v-305h-608v301h78v438q0 33 -5 50.5t-15 27.5 t-26.5 15.5t-45.5 5.5h-2q-29 0 -62.5 -6.5t-85.5 -22.5v-508h78v-301h-561v301h78v438q0 33 -5 50.5t-16 27.5q-10 10 -26.5 15.5t-44.5 5.5h-2q-29 0 -63 -6.5t-85 -22.5v-508h78v-301h-614z" />
<glyph unicode="n" horiz-adv-x="1415" d="M68 0v305h131v537h-131v305h536v-170q111 111 167 141.5t144 30.5h66q74 0 127 -15.5t86 -48.5q37 -37 51.5 -98t14.5 -192v-490h124v-305h-610v301h80v438q0 33 -5 50.5t-15 27.5t-26.5 15.5t-45.5 5.5h-10q-29 0 -63 -6.5t-85 -22.5v-508h80v-301h-616z" />
<glyph unicode="o" horiz-adv-x="1241" d="M72 573q0 227 26.5 335t83.5 165q39 41 89.5 57.5t140.5 16.5h417q90 0 140.5 -16.5t89.5 -57.5q57 -57 83.5 -164.5t26.5 -335.5q0 -229 -26.5 -335.5t-83.5 -163.5q-39 -41 -89 -57.5t-141 -16.5h-417q-90 0 -140.5 16.5t-89.5 57.5q-57 57 -83.5 164.5t-26.5 334.5z M471 573q0 -150 6 -197.5t15 -58.5q8 -12 23 -15t48 -3h115q33 0 48 4t24 14q8 10 14 58.5t6 197.5q0 150 -6 198t-14 58t-23.5 14.5t-48.5 4.5h-115q-33 0 -48 -3t-23 -16q-8 -10 -14.5 -58t-6.5 -198z" />
<glyph unicode="p" horiz-adv-x="1339" d="M39 -43h131v885h-131v305h536v-162q104 100 160 132t129 32h66q90 0 145 -16.5t94 -55.5q55 -55 77 -160.5t22 -332.5t-29 -330.5t-86 -161.5q-39 -39 -95.5 -56.5t-135.5 -17.5h-76q-74 0 -130.5 22.5t-140.5 100.5v-188h142v-301h-678v305zM575 348q33 -12 64 -18 t57 -6h47q35 0 56.5 5t36.5 19q18 18 25 63.5t7 172.5t-7 172t-25 63q-14 14 -36 19.5t-57 5.5h-36q-31 0 -63 -7.5t-69 -21.5v-467z" />
<glyph unicode="q" horiz-adv-x="1339" d="M72 584q0 227 28.5 330.5t85.5 160.5q39 39 95.5 56.5t136.5 17.5h76q72 0 128 -23.5t142 -99.5v121h536v-305h-131v-885h131v-305h-677v301h141v229q-104 -102 -160.5 -133t-128.5 -31h-65q-90 0 -145.5 16.5t-94.5 55.5q-55 55 -76.5 160.5t-21.5 333.5zM471 584 q0 -127 7 -172t26 -64q14 -14 35.5 -19t56.5 -5h37q29 0 60.5 7t70.5 21v467q-33 12 -63.5 18.5t-57.5 6.5h-47q-35 0 -56.5 -5t-35.5 -20q-18 -18 -25.5 -63t-7.5 -172z" />
<glyph unicode="r" horiz-adv-x="993" d="M68 0v305h131v537h-131v305h536v-186q92 98 149.5 142t127.5 44h90v-391h-115q-68 0 -124 -9.5t-128 -39.5v-402h133v-305h-669z" />
<glyph unicode="s" horiz-adv-x="1161" d="M68 369h348q2 -39 4 -54.5t8 -23.5q4 -8 15.5 -11.5t35.5 -3.5h187q27 0 38 3.5t15 7.5t6 17t2 42q0 27 -3 37t-9 16t-21.5 11.5t-56.5 9.5l-322 41q-70 8 -108.5 24.5t-63.5 42.5q-35 37 -48 90.5t-13 178.5t27.5 195.5t60.5 103.5q27 27 64.5 39t101.5 12h455 q86 0 139 -14.5t78 -38.5q33 -33 48 -99.5t17 -208.5h-348q-2 39 -4 50.5t-8 19.5q-4 8 -15.5 11t-35.5 3h-156q-27 0 -37 -2t-18 -10q-4 -4 -7.5 -13t-3.5 -36q0 -25 4.5 -36t14.5 -19q8 -4 21.5 -8.5t49.5 -8.5l349 -43q63 -8 100 -23.5t59 -37.5q31 -31 43.5 -96.5 t12.5 -174.5q0 -137 -28 -207.5t-62 -105.5q-27 -27 -66 -38t-100 -11h-486q-94 0 -141 13.5t-74 43.5q-31 33 -49 97.5t-20 214.5z" />
<glyph unicode="t" horiz-adv-x="903" d="M33 842v305h141v287h406v-287h274v-305h-274v-445q0 -33 4 -51t12 -27q8 -8 25.5 -11t56.5 -3h174v-260l-98 -22q-51 -12 -127 -21.5t-162 -9.5q-102 0 -153.5 21.5t-80.5 49.5q-27 27 -42 77t-15 157v545h-141z" />
<glyph unicode="u" horiz-adv-x="1386" d="M31 842v305h530v-739q0 -33 5 -50.5t16 -27.5q10 -10 26.5 -15.5t44.5 -5.5h11q29 0 61.5 6.5t85.5 20.5v510h-131v301h537v-842h131v-305h-537v168q-111 -111 -168 -140.5t-143 -29.5h-66q-74 0 -127 15.5t-86 47.5q-37 37 -51 98.5t-14 192.5v490h-125z" />
<glyph unicode="v" horiz-adv-x="1368" d="M18 842v305h635v-305h-110l139 -453h23l139 453h-111v305h617v-305h-115l-283 -752q-23 -57 -51.5 -75.5t-85.5 -18.5h-262q-57 0 -86 18.5t-51 75.5l-283 752h-115z" />
<glyph unicode="w" horiz-adv-x="1923" d="M18 842v305h578v-305h-80l68 -441h18l154 656q14 57 47 75.5t90 18.5h156q57 0 89.5 -18.5t47.5 -75.5l153 -656h19l67 441h-79v305h559v-305h-95l-192 -752q-14 -59 -47 -76.5t-90 -17.5h-269q-57 0 -91 18.5t-46 75.5l-104 496h-19l-104 -496q-12 -57 -46 -75.5 t-91 -18.5h-269q-57 0 -90 17.5t-47 76.5l-192 752h-95z" />
<glyph unicode="x" horiz-adv-x="1325" d="M39 0v305h100l228 275l-220 262h-100v305h590v-293h-102l131 -158h10l137 158h-102v293h567v-305h-100l-222 -256l230 -281h100v-305h-596v293h109l-142 168h-10l-143 -168h108v-293h-573z" />
<glyph unicode="y" horiz-adv-x="1384" d="M18 842v305h641v-305h-112l162 -467h10l137 467h-113v305h623v-305h-113l-389 -989q-45 -111 -115.5 -158t-218.5 -47q-82 0 -155.5 4t-163.5 12v297h227q23 0 36 8t22 31l-365 842h-113z" />
<glyph unicode="z" horiz-adv-x="1232" d="M61 0v268l607 598h-242v-200h-336v481h1081v-268l-606 -598h271v215h335v-496h-1110z" />
<glyph unicode="{" horiz-adv-x="952" d="M43 471v184q127 10 180 24.5t68 29.5q14 14 20 30.5t6 36.5q0 49 -20.5 158.5t-20.5 185.5q0 68 67 138.5t267 226.5h244q-117 -166 -148.5 -231.5t-31.5 -98.5q0 -66 16.5 -179.5t16.5 -170.5q0 -104 -51.5 -152.5t-221.5 -87.5v-4q170 -39 221.5 -87t51.5 -152 q0 -57 -16.5 -171t-16.5 -180q0 -33 31.5 -98.5t148.5 -230.5h-244q-201 156 -267.5 226.5t-66.5 137.5q0 76 20.5 185.5t20.5 158.5q0 20 -6 36.5t-20 31.5q-14 14 -67.5 28.5t-180.5 24.5z" />
<glyph unicode="|" horiz-adv-x="673" d="M154 -328v1925h366v-1925h-366z" />
<glyph unicode="}" horiz-adv-x="952" d="M98 -358q117 166 149 231.5t32 97.5q0 66 -16.5 179.5t-16.5 171.5q0 104 51 152t221 87v4q-170 39 -221 87t-51 153q0 57 16.5 171t16.5 179q0 33 -32 98.5t-149 231.5h244q201 -156 267.5 -226.5t66.5 -138.5q0 -76 -20.5 -185.5t-20.5 -158.5q0 -20 6 -36.5t21 -30.5 q14 -14 67 -28.5t180 -25.5v-184q-127 -10 -180 -24.5t-67 -28.5t-20.5 -30.5t-6.5 -37.5q0 -49 20.5 -158.5t20.5 -185.5q0 -68 -66.5 -138.5t-267.5 -225.5h-244z" />
<glyph unicode="~" horiz-adv-x="0" d="M137 522v129q0 37 7.5 62.5t21.5 40.5q10 10 27.5 18t50.5 8h30q37 0 71 -8t97 -33l144 -53l57 94h109v-129q0 -37 -7.5 -62.5t-21.5 -39.5q-10 -10 -27.5 -18.5t-50.5 -8.5h-31q-37 0 -70.5 8.5t-97.5 32.5l-143 53l-57 -94h-109z" />
<glyph unicode="&#xa1;" horiz-adv-x="673" d="M117 0v86l102 856h215l123 -856v-86h-440zM147 1055v379h379v-379h-379z" />
<glyph unicode="&#xa2;" horiz-adv-x="1196" d="M55 723q0 240 27 336t84 153q39 41 89 57.5t140 16.5h86v193h310v-193h69q104 0 149.5 -24.5t71.5 -51.5q41 -41 58.5 -132t17.5 -232h-309q0 53 -4 82.5t-15 40.5q-10 10 -28.5 14t-50.5 4h-7v-528h11q33 0 51 4t29 14q10 10 14 40t4 99h309q0 -158 -17.5 -249 t-58.5 -131q-27 -27 -71.5 -51.5t-149.5 -24.5h-73v-205h-310v205h-86q-90 0 -140 16.5t-89 56.5q-57 57 -84 153.5t-27 336.5zM414 713q0 -150 6 -188t14 -48q8 -12 23.5 -15t48.5 -3h22v528h-22q-33 0 -48.5 -3t-23.5 -15q-8 -10 -14 -58.5t-6 -197.5z" />
<glyph unicode="&#xa3;" horiz-adv-x="1449" d="M72 0v319h151v228h-151v295h151v133q0 147 22.5 238.5t84.5 148.5q39 39 96 55.5t166 16.5h387q104 0 164.5 -14.5t103.5 -57.5q57 -57 79 -161.5t22 -323.5h-392q0 125 -6 167.5t-18 55.5q-8 8 -23.5 12t-56.5 4h-104q-41 0 -56.5 -4t-23.5 -12q-10 -10 -16.5 -44 t-6.5 -100v-120h258v-283h-258v-238h354v242h359v-557h-1286z" />
<glyph unicode="&#xa5;" horiz-adv-x="1488" d="M2 1114v320h715v-316h-125l158 -231h8l170 231h-125v316h684v-320h-119l-270 -336h198v-307h-346v-152h162v-319h-743v319h161v152h-354v307h207l-262 336h-119z" />
<glyph unicode="&#xa7;" horiz-adv-x="1468" d="M82 741q0 94 17.5 146.5t50.5 81.5q20 20 50.5 30.5t73.5 12.5q-4 25 -6 52.5t-2 55.5q0 115 26.5 176.5t59.5 89.5q31 27 73 38.5t118 11.5h381q78 0 125 -14.5t71 -39.5q33 -33 47.5 -94t16.5 -178h-342q-2 23 -4 36t-9 21q-4 6 -14 9.5t-33 3.5h-102q-25 0 -34 -2 t-17 -9q-4 -4 -7.5 -13t-3.5 -34q0 -20 4.5 -31.5t14.5 -19.5q6 -2 19.5 -7t45.5 -7l457 -37q68 -4 108 -21.5t62 -42.5q33 -33 45 -99t12 -140q0 -119 -24.5 -177.5t-56.5 -82.5q-20 -14 -49 -22.5t-62 -10.5q4 -25 6 -49.5t2 -46.5q0 -115 -25.5 -179.5t-58.5 -95.5 q-31 -29 -72.5 -41t-115.5 -12h-385q-96 0 -144.5 13.5t-76.5 45.5q-31 33 -49.5 93.5t-20.5 181.5h342q2 -27 4 -40t10 -24q6 -8 17.5 -11t38.5 -3h110q29 0 41 3t17 7q6 6 8 18.5t2 34.5q0 18 -3 29.5t-12 20.5q-8 8 -25.5 13t-55.5 7l-418 35q-74 6 -115 24.5t-68 45.5 q-37 39 -51 101t-14 146zM426 741q0 -18 5 -29.5t13 -17.5t24.5 -9t41.5 -5l446 -33q25 -2 43.5 -1t26.5 9q6 8 8 18.5t2 31.5q0 18 -5 29t-13 18q-8 6 -24.5 9t-41.5 5l-446 33q-25 2 -43.5 1t-26.5 -9q-6 -8 -8 -18.5t-2 -31.5z" />
<glyph unicode="&#xa8;" horiz-adv-x="1024" d="M55 1268v309h391v-309h-391zM557 1268v309h391v-309h-391z" />
<glyph unicode="&#xa9;" horiz-adv-x="1626" d="M147 717q0 293 40 424t96 186q49 51 118.5 79t225.5 28h372q156 0 225.5 -28t118.5 -79q55 -55 95.5 -186t40.5 -424t-40 -424t-96 -187q-49 -51 -118.5 -78.5t-225.5 -27.5h-372q-156 0 -225.5 27.5t-118.5 78.5q-55 55 -95.5 187.5t-40.5 423.5zM297 717 q0 -262 27.5 -368.5t68.5 -149.5q33 -35 83 -52.5t161 -17.5h352q111 0 161 17.5t83 52.5q41 43 68.5 149.5t27.5 368.5t-27.5 368.5t-68.5 149.5q-33 35 -83 52.5t-161 17.5h-352q-111 0 -161 -17.5t-83 -52.5q-41 -43 -68.5 -149.5t-27.5 -368.5zM475 721 q0 162 19.5 239.5t52.5 110.5q23 23 54.5 33t92.5 10h246q57 0 93 -9t57 -30q33 -33 44 -99.5t13 -170.5h-225q-2 68 -5.5 90.5t-9.5 28.5q-4 6 -15 8t-32 2h-78q-25 0 -35 -2t-14 -8q-6 -6 -10 -41t-4 -162q0 -129 4 -165t10 -40q4 -6 14.5 -8t34.5 -2h78q25 0 34 3t13 7 q6 4 9.5 26.5t5.5 98.5h225q-2 -109 -13.5 -175.5t-43.5 -98.5q-20 -23 -54.5 -32t-95.5 -9h-246q-61 0 -93 10t-54 35q-33 33 -52.5 109.5t-19.5 240.5z" />
<glyph unicode="&#xaa;" horiz-adv-x="1114" d="M139 303v211h838v-211h-838zM145 860q0 76 11.5 126t38.5 77q29 27 75.5 38t116.5 11q51 0 106.5 -6t114.5 -19v48q0 45 -2 61t-10 25q-6 6 -17.5 8t-29.5 2h-53q-18 0 -28.5 -2t-18.5 -8q-4 -8 -6.5 -19.5t-4.5 -36.5h-260q2 104 12.5 150.5t34.5 73.5q23 25 56.5 35 t91.5 10h325q51 0 88 -10.5t58 -32.5q25 -25 35 -66t10 -133v-332h88v-215h-369v80q-66 -53 -101.5 -67.5t-86.5 -14.5h-94q-51 0 -82 8t-54 31q-20 20 -32.5 59t-12.5 119zM420 891q0 -14 3 -27.5t11 -21.5t20.5 -11.5t28.5 -3.5q25 0 50.5 6.5t74.5 32.5v90h-71 q-51 0 -73 -4t-30 -14q-8 -8 -11 -21.5t-3 -25.5z" />
<glyph unicode="&#xab;" horiz-adv-x="1327" d="M61 477v193l252 280h416l-334 -377l334 -376h-416zM618 477v193l252 280h416l-334 -377l334 -376h-416z" />
<glyph unicode="&#xad;" horiz-adv-x="794" d="M84 516v311h627v-311h-627z" />
<glyph unicode="&#xae;" horiz-adv-x="999" d="M102 1024q0 172 25 247t57 107q29 29 69 48.5t130 19.5h233q90 0 130 -19.5t69 -48.5q33 -33 57.5 -107.5t24.5 -246.5t-24.5 -247t-57.5 -107q-29 -29 -68.5 -48.5t-130.5 -19.5h-233q-90 0 -130 19.5t-69 48.5q-33 33 -57.5 107.5t-24.5 246.5zM207 1024 q0 -152 14.5 -210t38.5 -83q20 -20 48 -29.5t91 -9.5h201q63 0 91 9.5t48 29.5q25 25 39.5 83t14.5 210t-14.5 210t-39.5 83q-20 20 -47.5 29.5t-91.5 9.5h-201q-63 0 -90.5 -9.5t-48.5 -29.5q-25 -25 -39 -83t-14 -210zM291 803v100h49v250h-49v100h295q29 0 48 -6t34 -18 q14 -14 19 -37t5 -64q0 -59 -17.5 -79.5t-56.5 -28.5v-2q35 -6 51.5 -23.5t16.5 -66.5v-12.5t2 -12.5h43v-100h-117q-20 0 -29.5 3t-15.5 9q-6 8 -10 26.5t-6 73.5q-2 27 -3 36.5t-7 13.5q-4 4 -12.5 6t-22.5 2h-39v-70h47v-100h-225zM469 1065h49q12 0 19.5 2t9.5 4 q4 4 5 13.5t1 25.5t-1 24.5t-5 12.5q-2 4 -9.5 5t-19.5 1h-49v-88z" />
<glyph unicode="&#xaf;" horiz-adv-x="1024" d="M127 1270v266h770v-266h-770z" />
<glyph unicode="&#xb0;" horiz-adv-x="884" d="M84 1059q0 156 20.5 226.5t57.5 103.5q27 25 60.5 35t96.5 10h246q63 0 97 -10.5t61 -34.5q37 -33 57.5 -104t20.5 -226q0 -156 -20.5 -226.5t-57.5 -103.5q-27 -25 -60.5 -35t-97.5 -10h-246q-63 0 -97 10.5t-60 34.5q-37 33 -57.5 103.5t-20.5 226.5zM326 1059 q0 -76 5 -103.5t13 -35.5q10 -10 26.5 -12.5t41.5 -2.5h61q25 0 41 2t27 13q8 8 13 35.5t5 103.5t-5 103.5t-13 35.5q-10 10 -26.5 12t-41.5 2h-61q-25 0 -41.5 -2t-26.5 -12q-8 -8 -13 -35.5t-5 -103.5z" />
<glyph unicode="&#xb1;" horiz-adv-x="1077" d="M82 98v295h913v-295h-913zM82 805v299h307v287h299v-287h307v-299h-307v-287h-299v287h-307z" />
<glyph unicode="&#xb4;" horiz-adv-x="1024" d="M233 1266v10l173 260h495v-10l-399 -260h-269z" />
<glyph unicode="&#xb6;" horiz-adv-x="1312" d="M55 969q0 184 21.5 260t70.5 127q41 43 108 60.5t161 17.5h839v-320h-151v-795h151v-319h-733v319h162v185h-268q-94 0 -161 17.5t-108 60.5q-49 51 -70.5 126.5t-21.5 260.5z" />
<glyph unicode="&#xb7;" horiz-adv-x="518" d="M70 475v379h379v-379h-379z" />
<glyph unicode="&#xb8;" horiz-adv-x="1024" d="M190 -297h299q18 0 27.5 2t13.5 6t6.5 12.5t2.5 22.5t-2 22.5t-7 12.5q-4 4 -13 6t-28 2h-100v162h240q49 0 79.5 -7t47.5 -24q18 -18 28.5 -62t10.5 -132t-10.5 -121t-28.5 -51t-51 -25.5t-82 -7.5h-289l-144 129v53z" />
<glyph unicode="&#xba;" horiz-adv-x="1050" d="M139 303v211h772v-211h-772zM145 1038q0 154 18.5 231t57.5 115q27 27 61.5 38.5t94.5 11.5h297q59 0 94 -11.5t61 -38.5q39 -39 57.5 -115.5t18.5 -230.5t-18.5 -229.5t-57.5 -114.5q-27 -27 -61.5 -38t-93.5 -11h-297q-59 0 -94 11.5t-62 37.5q-39 39 -57.5 115 t-18.5 229zM424 1040q0 -96 2 -129.5t10 -42.5q6 -6 17.5 -8t31.5 -2h80q20 0 31.5 2t17.5 8q8 8 10.5 42t2.5 130t-2 130t-11 42q-6 6 -17 8.5t-32 2.5h-80q-20 0 -31.5 -2t-17.5 -9q-8 -8 -10 -41.5t-2 -130.5z" />
<glyph unicode="&#xbb;" horiz-adv-x="1327" d="M41 197l334 376l-334 377h416l252 -280v-193l-252 -280h-416zM598 197l334 376l-334 377h416l252 -280v-193l-252 -280h-416z" />
<glyph unicode="&#xbf;" horiz-adv-x="1220" d="M82 432q2 96 20.5 157.5t83.5 112.5q51 41 111.5 63.5t124.5 53.5q31 14 45 25.5t25 21.5q8 8 18 26.5t14 49.5h318v-39q-2 -115 -10.5 -168t-43.5 -88q-33 -33 -73.5 -53.5t-81.5 -38.5q-47 -20 -76 -34.5t-43 -28.5t-17 -35t-3 -54t3 -48t11 -23t25.5 -10.5t54.5 -2.5 h71q39 0 58.5 4.5t27.5 12.5t14.5 44t6.5 105h389q2 -197 -19.5 -285.5t-66.5 -133.5q-33 -33 -93.5 -49.5t-160.5 -16.5h-428q-82 0 -135 18.5t-82 51.5q-49 49 -70.5 138t-17.5 224zM496 1055v379h378v-379h-378z" />
<glyph unicode="&#xc0;" horiz-adv-x="1597" d="M27 0v319h120l334 986q27 76 63 105.5t109 29.5h291q74 0 110 -30t62 -105l334 -986h121v-319h-703v313h131l-34 123h-365l-33 -123h131v-313h-671zM311 1812v11h496l172 -260v-11h-268zM678 735h209l-92 332h-23z" />
<glyph unicode="&#xc1;" horiz-adv-x="1597" d="M27 0v319h120l334 986q27 76 63 105.5t109 29.5h291q74 0 110 -30t62 -105l334 -986h121v-319h-703v313h131l-34 123h-365l-33 -123h131v-313h-671zM594 1552v11l172 260h496v-11l-400 -260h-268zM678 735h209l-92 332h-23z" />
<glyph unicode="&#xc2;" horiz-adv-x="1597" d="M27 0v319h120l334 986q27 76 63 105.5t109 29.5h291q74 0 110 -30t62 -105l334 -986h121v-319h-703v313h131l-34 123h-365l-33 -123h131v-313h-671zM336 1552v11l289 260h331l289 -260v-11h-348l-111 97l-110 -97h-340zM678 735h209l-92 332h-23z" />
<glyph unicode="&#xc3;" horiz-adv-x="1597" d="M27 0v319h120l334 986q27 76 63 105.5t109 29.5h291q74 0 110 -30t62 -105l334 -986h121v-319h-703v313h131l-34 123h-365l-33 -123h131v-313h-671zM381 1563v127q0 55 9 86.5t30 52.5q14 14 39.5 25.5t70.5 11.5h60q29 0 51.5 -2t56.5 -11l240 -59l37 68h225v-127 q0 -55 -9 -87t-30 -53q-14 -14 -39.5 -25t-70.5 -11h-60q-29 0 -51 2t-57 10l-240 59l-37 -67h-225zM678 735h209l-92 332h-23z" />
<glyph unicode="&#xc4;" horiz-adv-x="1597" d="M27 0v319h120l334 986q27 76 63 105.5t109 29.5h291q74 0 110 -30t62 -105l334 -986h121v-319h-703v313h131l-34 123h-365l-33 -123h131v-313h-671zM340 1554v310h391v-310h-391zM678 735h209l-92 332h-23zM842 1554v310h391v-310h-391z" />
<glyph unicode="&#xc5;" horiz-adv-x="1597" d="M27 0v319h120l299 883q14 45 33 74t45 43h-2v2q-33 29 -45 76t-12 116q0 70 12 117t45 76q20 18 51 28.5t80 10.5h291q49 0 80 -10.5t51 -28.5q33 -29 45.5 -76t12.5 -117t-12.5 -116.5t-45.5 -75.5l-2 -2q27 -14 45.5 -43t32.5 -74l299 -883h121v-319h-703v313h131 l-34 123h-365l-33 -123h131v-313h-671zM678 735h209l-92 332h-23zM696 1513q0 -18 3 -26t10 -14q8 -8 20 -9.5t31 -1.5h78q18 0 30.5 1t20.5 10q6 6 9 14t3 26t-3 26.5t-9 14.5q-8 8 -20.5 9.5t-30.5 1.5h-78q-18 0 -30.5 -1t-20.5 -10q-6 -6 -9.5 -14t-3.5 -27z" />
<glyph unicode="&#xc6;" horiz-adv-x="2211" d="M10 0v319h121l440 795h-174v320h1731v-523h-359v207h-346v-244h297v-294h-297v-265h353v234h358v-549h-1282v319h152v117h-390l-65 -123h133v-313h-672zM774 735h230v393h-19z" />
<glyph unicode="&#xc7;" horiz-adv-x="1427" d="M82 717q0 295 34 436t97 203q41 41 98.5 59.5t167.5 18.5h490q104 0 166.5 -15.5t103.5 -56.5q57 -57 79.5 -178t24.5 -318h-411q-4 127 -9 170t-16 54q-8 8 -28.5 12t-59.5 4h-176q-47 0 -66.5 -4t-27.5 -12q-10 -10 -17.5 -75t-7.5 -298t7.5 -298t17.5 -75 q8 -8 27.5 -12t66.5 -4h176q45 0 62.5 4t25.5 12q10 10 15.5 50t9.5 179h411q-2 -199 -24.5 -320.5t-79.5 -178.5q-41 -41 -101.5 -57.5t-168.5 -16.5h-490q-111 0 -168 18.5t-98 59.5q-63 61 -97 202.5t-34 436.5zM410 -297h299q18 0 27 2t14 6q4 4 6 12.5t2 22.5t-2 22.5 t-6 12.5t-13.5 6t-27.5 2h-101v162h240q49 0 79.5 -7t47.5 -24q18 -18 28.5 -62t10.5 -132t-10.5 -121t-28.5 -51t-51 -25.5t-82 -7.5h-289l-143 129v53z" />
<glyph unicode="&#xc8;" horiz-adv-x="1417" d="M57 0v319h152v795h-152v320h1276v-523h-358v207h-346v-244h297v-294h-297v-265h352v234h358v-549h-1282zM223 1812v11h496l172 -260v-11h-268z" />
<glyph unicode="&#xc9;" horiz-adv-x="1417" d="M57 0v319h152v795h-152v320h1276v-523h-358v207h-346v-244h297v-294h-297v-265h352v234h358v-549h-1282zM506 1552v11l172 260h496v-11l-400 -260h-268z" />
<glyph unicode="&#xca;" horiz-adv-x="1417" d="M57 0v319h152v795h-152v320h1276v-523h-358v207h-346v-244h297v-294h-297v-265h352v234h358v-549h-1282zM248 1552v11l289 260h331l289 -260v-11h-348l-111 97l-110 -97h-340z" />
<glyph unicode="&#xcb;" horiz-adv-x="1417" d="M57 0v319h152v795h-152v320h1276v-523h-358v207h-346v-244h297v-294h-297v-265h352v234h358v-549h-1282zM252 1554v310h391v-310h-391zM754 1554v310h391v-310h-391z" />
<glyph unicode="&#xcc;" horiz-adv-x="849" d="M-51 1812v11h495l172 -260v-11h-268zM57 0v319h158v795h-158v320h736v-320h-158v-795h158v-319h-736z" />
<glyph unicode="&#xcd;" horiz-adv-x="849" d="M57 0v319h158v795h-158v320h736v-320h-158v-795h158v-319h-736zM231 1552v11l172 260h496v-11l-399 -260h-269z" />
<glyph unicode="&#xce;" horiz-adv-x="849" d="M-27 1552v11l289 260h332l289 -260v-11h-348l-111 97l-111 -97h-340zM57 0v319h158v795h-158v320h736v-320h-158v-795h158v-319h-736z" />
<glyph unicode="&#xcf;" horiz-adv-x="849" d="M-23 1554v310h392v-310h-392zM57 0v319h158v795h-158v320h736v-320h-158v-795h158v-319h-736zM479 1554v310h391v-310h-391z" />
<glyph unicode="&#xd0;" horiz-adv-x="1519" d="M59 0v319h152v254h-152v312h152v229h-152v320h826q154 0 247 -25t156 -88q74 -74 112 -205t38 -399t-38 -399.5t-112 -204.5q-63 -63 -156.5 -88t-246.5 -25h-826zM631 319h186q70 0 101.5 6.5t46.5 20.5q16 16 23 86t7 285q0 213 -7 283.5t-23 86.5q-14 14 -46 20.5 t-102 6.5h-186v-229h205v-312h-205v-254z" />
<glyph unicode="&#xd1;" horiz-adv-x="1695" d="M61 0v319h152v795h-152v320h547q70 0 103.5 -22.5t66.5 -82.5l338 -629h10v414h-141v320h668v-320h-148v-1114h-350q-70 0 -103.5 22.5t-66.5 81.5l-383 713h-10v-498h151v-319h-682zM451 1563v127q0 55 9 86.5t29 52.5q14 14 40 25.5t71 11.5h59q29 0 51.5 -2t57.5 -11 l240 -59l36 68h226v-127q0 -55 -9.5 -87t-29.5 -53q-14 -14 -40 -25t-71 -11h-59q-29 0 -51.5 2t-57.5 10l-239 59l-37 -67h-225z" />
<glyph unicode="&#xd2;" d="M82 717q0 295 34 436t97 203q41 41 98.5 59.5t167.5 18.5h500q111 0 168 -18.5t98 -59.5q63 -61 97 -202.5t34 -436.5t-33.5 -436.5t-97.5 -202.5q-41 -41 -98 -59.5t-168 -18.5h-500q-111 0 -168 18.5t-98 59.5q-63 61 -97 202.5t-34 436.5zM254 1812v11h496l172 -260 v-11h-269zM524 717q0 -236 7.5 -299.5t17.5 -73.5q8 -8 28.5 -12t65.5 -4h172q45 0 65.5 4t28.5 12q10 10 17.5 74.5t7.5 298.5q0 233 -7 297.5t-18 75.5q-8 8 -28.5 12t-65.5 4h-172q-45 0 -65.5 -4t-28.5 -12q-10 -10 -17.5 -75t-7.5 -298z" />
<glyph unicode="&#xd3;" d="M82 717q0 295 34 436t97 203q41 41 98.5 59.5t167.5 18.5h500q111 0 168 -18.5t98 -59.5q63 -61 97 -202.5t34 -436.5t-33.5 -436.5t-97.5 -202.5q-41 -41 -98 -59.5t-168 -18.5h-500q-111 0 -168 18.5t-98 59.5q-63 61 -97 202.5t-34 436.5zM524 717q0 -236 7.5 -299.5 t17.5 -73.5q8 -8 28.5 -12t65.5 -4h172q45 0 65.5 4t28.5 12q10 10 17.5 74.5t7.5 298.5q0 233 -7 297.5t-18 75.5q-8 8 -28.5 12t-65.5 4h-172q-45 0 -65.5 -4t-28.5 -12q-10 -10 -17.5 -75t-7.5 -298zM537 1552v11l172 260h495v-11l-399 -260h-268z" />
<glyph unicode="&#xd4;" d="M82 717q0 295 34 436t97 203q41 41 98.5 59.5t167.5 18.5h500q111 0 168 -18.5t98 -59.5q63 -61 97 -202.5t34 -436.5t-33.5 -436.5t-97.5 -202.5q-41 -41 -98 -59.5t-168 -18.5h-500q-111 0 -168 18.5t-98 59.5q-63 61 -97 202.5t-34 436.5zM279 1552v11l288 260h332 l289 -260v-11h-348l-111 97l-111 -97h-339zM524 717q0 -236 7.5 -299.5t17.5 -73.5q8 -8 28.5 -12t65.5 -4h172q45 0 65.5 4t28.5 12q10 10 17.5 74.5t7.5 298.5q0 233 -7 297.5t-18 75.5q-8 8 -28.5 12t-65.5 4h-172q-45 0 -65.5 -4t-28.5 -12q-10 -10 -17.5 -75t-7.5 -298 z" />
<glyph unicode="&#xd5;" d="M82 717q0 295 34 436t97 203q41 41 98.5 59.5t167.5 18.5h500q111 0 168 -18.5t98 -59.5q63 -61 97 -202.5t34 -436.5t-33.5 -436.5t-97.5 -202.5q-41 -41 -98 -59.5t-168 -18.5h-500q-111 0 -168 18.5t-98 59.5q-63 61 -97 202.5t-34 436.5zM324 1563v127q0 55 9 86.5 t29 52.5q14 14 40 25.5t71 11.5h59q29 0 51.5 -2t57.5 -11l240 -59l37 68h225v-127q0 -55 -9.5 -87t-29.5 -53q-14 -14 -40 -25t-71 -11h-59q-29 0 -51.5 2t-57.5 10l-239 59l-37 -67h-225zM524 717q0 -236 7.5 -299.5t17.5 -73.5q8 -8 28.5 -12t65.5 -4h172q45 0 65.5 4 t28.5 12q10 10 17.5 74.5t7.5 298.5q0 233 -7 297.5t-18 75.5q-8 8 -28.5 12t-65.5 4h-172q-45 0 -65.5 -4t-28.5 -12q-10 -10 -17.5 -75t-7.5 -298z" />
<glyph unicode="&#xd6;" d="M82 717q0 295 34 436t97 203q41 41 98.5 59.5t167.5 18.5h500q111 0 168 -18.5t98 -59.5q63 -61 97 -202.5t34 -436.5t-33.5 -436.5t-97.5 -202.5q-41 -41 -98 -59.5t-168 -18.5h-500q-111 0 -168 18.5t-98 59.5q-63 61 -97 202.5t-34 436.5zM283 1554v310h391v-310h-391 zM524 717q0 -236 7.5 -299.5t17.5 -73.5q8 -8 28.5 -12t65.5 -4h172q45 0 65.5 4t28.5 12q10 10 17.5 74.5t7.5 298.5q0 233 -7 297.5t-18 75.5q-8 8 -28.5 12t-65.5 4h-172q-45 0 -65.5 -4t-28.5 -12q-10 -10 -17.5 -75t-7.5 -298zM784 1554v310h392v-310h-392z" />
<glyph unicode="&#xd7;" horiz-adv-x="1077" d="M90 506l238 237l-238 238l211 211l238 -238l237 238l211 -211l-237 -238l237 -237l-211 -211l-237 237l-238 -237z" />
<glyph unicode="&#xd8;" d="M82 717q0 295 34 436t97 203q41 41 98.5 59.5t167.5 18.5h428l51 108h326l-76 -158q8 -6 18.5 -13t18.5 -15q63 -61 97 -202.5t34 -436.5t-33.5 -436.5t-97.5 -202.5q-41 -41 -98 -59.5t-168 -18.5h-432l-51 -109h-326l76 158q-8 6 -16.5 13.5t-16.5 15.5 q-63 61 -97 202.5t-34 436.5zM524 567l244 539h-125q-45 0 -65.5 -4t-28.5 -12q-10 -10 -17.5 -75t-7.5 -298v-150zM684 328h131q45 0 65.5 4t28.5 12q10 10 17.5 74.5t7.5 298.5v84t-2 71z" />
<glyph unicode="&#xd9;" horiz-adv-x="1619" d="M47 1114v320h715v-320h-144v-575q0 -100 5.5 -138.5t19.5 -52.5q12 -12 42 -16t81 -4h96q51 0 81 4t42 16q14 14 19.5 52t5.5 139v575h-144v320h707v-320h-148v-539q0 -238 -27.5 -336t-84.5 -155q-49 -49 -122 -66.5t-210 -17.5h-342q-137 0 -210 17.5t-122 66.5 q-57 57 -84.5 155.5t-27.5 335.5v539h-148zM334 1812v11h495l172 -260v-11h-268z" />
<glyph unicode="&#xda;" horiz-adv-x="1619" d="M47 1114v320h715v-320h-144v-575q0 -100 5.5 -138.5t19.5 -52.5q12 -12 42 -16t81 -4h96q51 0 81 4t42 16q14 14 19.5 52t5.5 139v575h-144v320h707v-320h-148v-539q0 -238 -27.5 -336t-84.5 -155q-49 -49 -122 -66.5t-210 -17.5h-342q-137 0 -210 17.5t-122 66.5 q-57 57 -84.5 155.5t-27.5 335.5v539h-148zM616 1552v11l172 260h496v-11l-399 -260h-269z" />
<glyph unicode="&#xdb;" horiz-adv-x="1619" d="M47 1114v320h715v-320h-144v-575q0 -100 5.5 -138.5t19.5 -52.5q12 -12 42 -16t81 -4h96q51 0 81 4t42 16q14 14 19.5 52t5.5 139v575h-144v320h707v-320h-148v-539q0 -238 -27.5 -336t-84.5 -155q-49 -49 -122 -66.5t-210 -17.5h-342q-137 0 -210 17.5t-122 66.5 q-57 57 -84.5 155.5t-27.5 335.5v539h-148zM358 1552v11l289 260h332l289 -260v-11h-348l-111 97l-111 -97h-340z" />
<glyph unicode="&#xdc;" horiz-adv-x="1619" d="M47 1114v320h715v-320h-144v-575q0 -100 5.5 -138.5t19.5 -52.5q12 -12 42 -16t81 -4h96q51 0 81 4t42 16q14 14 19.5 52t5.5 139v575h-144v320h707v-320h-148v-539q0 -238 -27.5 -336t-84.5 -155q-49 -49 -122 -66.5t-210 -17.5h-342q-137 0 -210 17.5t-122 66.5 q-57 57 -84.5 155.5t-27.5 335.5v539h-148zM362 1554v310h392v-310h-392zM864 1554v310h391v-310h-391z" />
<glyph unicode="&#xdd;" horiz-adv-x="1542" d="M23 1114v320h720v-316h-125l158 -246h8l170 246h-125v316h691v-320h-119l-424 -565v-230h162v-319h-744v319h162v224l-416 571h-118zM592 1552v11l172 260h496v-11l-400 -260h-268z" />
<glyph unicode="&#xde;" horiz-adv-x="1378" d="M51 0v319h158v795h-158v320h578v-263h370q94 0 161 -17t108 -60q49 -51 70.5 -125t21.5 -252t-21.5 -252t-70.5 -125q-41 -43 -107.5 -60.5t-161.5 -17.5h-370v-262h-578zM629 565h176q45 0 65.5 4t28.5 13q14 14 18.5 42.5t4.5 86.5q0 57 -4.5 85.5t-18.5 43.5 q-8 8 -28.5 12t-65.5 4h-176v-291z" />
<glyph unicode="&#xdf;" horiz-adv-x="1406" d="M68 0v305h131v537h-131v305h131v55q0 82 20.5 150.5t67.5 117.5q39 39 94 57.5t147 18.5h396q94 0 153.5 -17.5t98.5 -58.5q47 -51 68.5 -123.5t21.5 -154.5q0 -162 -57.5 -244t-168.5 -112v-5q150 -20 220.5 -102t70.5 -295q0 -143 -27.5 -223t-76.5 -129 q-45 -45 -104.5 -63.5t-147.5 -18.5h-285v324h111q27 0 42 4t25 14t17.5 40t7.5 120q0 88 -6 118.5t-19 43.5q-10 10 -25.5 14t-41.5 4h-111v295h53q27 0 40.5 3t21.5 11q10 12 17 28.5t7 78.5q0 59 -6 78.5t-16 29.5q-8 8 -21.5 12.5t-42.5 4.5h-53q-29 0 -42 -4.5 t-21 -12.5q-10 -10 -16.5 -36.5t-6.5 -71.5v-1098h-536z" />
<glyph unicode="&#xe0;" horiz-adv-x="1298" d="M70 317q0 111 16 180.5t55 108.5q41 41 106.5 56.5t166.5 15.5q80 0 158.5 -9.5t166.5 -25.5v78q0 68 -4 90.5t-14 32.5q-8 8 -24.5 12t-43.5 4h-78q-27 0 -43 -4t-24 -12q-10 -10 -13 -26.5t-6 -55.5h-372q2 152 17.5 217t51.5 102q35 35 85.5 50.5t131.5 15.5h461 q74 0 127 -15.5t86 -48.5q37 -37 51.5 -98t14.5 -192v-488h125v-305h-529v119q-96 -80 -149 -100.5t-129 -20.5h-127q-76 0 -121 12.5t-78 44.5q-29 29 -47 87.5t-18 174.5zM170 1526v10h496l172 -260v-10h-269zM459 356q0 -27 4 -46t16 -31t30.5 -16.5t43.5 -4.5q35 0 74 9 t112 44v154h-106q-76 0 -106.5 -6t-45.5 -21q-14 -14 -18 -35.5t-4 -46.5z" />
<glyph unicode="&#xe1;" horiz-adv-x="1298" d="M70 317q0 111 16 180.5t55 108.5q41 41 106.5 56.5t166.5 15.5q80 0 158.5 -9.5t166.5 -25.5v78q0 68 -4 90.5t-14 32.5q-8 8 -24.5 12t-43.5 4h-78q-27 0 -43 -4t-24 -12q-10 -10 -13 -26.5t-6 -55.5h-372q2 152 17.5 217t51.5 102q35 35 85.5 50.5t131.5 15.5h461 q74 0 127 -15.5t86 -48.5q37 -37 51.5 -98t14.5 -192v-488h125v-305h-529v119q-96 -80 -149 -100.5t-129 -20.5h-127q-76 0 -121 12.5t-78 44.5q-29 29 -47 87.5t-18 174.5zM453 1266v10l172 260h495v-10l-399 -260h-268zM459 356q0 -27 4 -46t16 -31t30.5 -16.5t43.5 -4.5 q35 0 74 9t112 44v154h-106q-76 0 -106.5 -6t-45.5 -21q-14 -14 -18 -35.5t-4 -46.5z" />
<glyph unicode="&#xe2;" horiz-adv-x="1298" d="M70 317q0 111 16 180.5t55 108.5q41 41 106.5 56.5t166.5 15.5q80 0 158.5 -9.5t166.5 -25.5v78q0 68 -4 90.5t-14 32.5q-8 8 -24.5 12t-43.5 4h-78q-27 0 -43 -4t-24 -12q-10 -10 -13 -26.5t-6 -55.5h-372q2 152 17.5 217t51.5 102q35 35 85.5 50.5t131.5 15.5h461 q74 0 127 -15.5t86 -48.5q37 -37 51.5 -98t14.5 -192v-488h125v-305h-529v119q-96 -80 -149 -100.5t-129 -20.5h-127q-76 0 -121 12.5t-78 44.5q-29 29 -47 87.5t-18 174.5zM195 1266v10l288 260h332l289 -260v-10h-348l-111 96l-110 -96h-340zM459 356q0 -27 4 -46t16 -31 t30.5 -16.5t43.5 -4.5q35 0 74 9t112 44v154h-106q-76 0 -106.5 -6t-45.5 -21q-14 -14 -18 -35.5t-4 -46.5z" />
<glyph unicode="&#xe3;" horiz-adv-x="1298" d="M70 317q0 111 16 180.5t55 108.5q41 41 106.5 56.5t166.5 15.5q80 0 158.5 -9.5t166.5 -25.5v78q0 68 -4 90.5t-14 32.5q-8 8 -24.5 12t-43.5 4h-78q-27 0 -43 -4t-24 -12q-10 -10 -13 -26.5t-6 -55.5h-372q2 152 17.5 217t51.5 102q35 35 85.5 50.5t131.5 15.5h461 q74 0 127 -15.5t86 -48.5q37 -37 51.5 -98t14.5 -192v-488h125v-305h-529v119q-96 -80 -149 -100.5t-129 -20.5h-127q-76 0 -121 12.5t-78 44.5q-29 29 -47 87.5t-18 174.5zM240 1276v127q0 55 9 87t30 52q14 14 39.5 25.5t70.5 11.5h60q29 0 51 -2t57 -10l240 -60l37 68 h225v-127q0 -55 -9.5 -87t-29.5 -52q-14 -14 -40 -25.5t-71 -11.5h-59q-29 0 -51.5 2t-57.5 10l-239 59l-37 -67h-225zM459 356q0 -27 4 -46t16 -31t30.5 -16.5t43.5 -4.5q35 0 74 9t112 44v154h-106q-76 0 -106.5 -6t-45.5 -21q-14 -14 -18 -35.5t-4 -46.5z" />
<glyph unicode="&#xe4;" horiz-adv-x="1298" d="M70 317q0 111 16 180.5t55 108.5q41 41 106.5 56.5t166.5 15.5q80 0 158.5 -9.5t166.5 -25.5v78q0 68 -4 90.5t-14 32.5q-8 8 -24.5 12t-43.5 4h-78q-27 0 -43 -4t-24 -12q-10 -10 -13 -26.5t-6 -55.5h-372q2 152 17.5 217t51.5 102q35 35 85.5 50.5t131.5 15.5h461 q74 0 127 -15.5t86 -48.5q37 -37 51.5 -98t14.5 -192v-488h125v-305h-529v119q-96 -80 -149 -100.5t-129 -20.5h-127q-76 0 -121 12.5t-78 44.5q-29 29 -47 87.5t-18 174.5zM199 1268v309h391v-309h-391zM459 356q0 -27 4 -46t16 -31t30.5 -16.5t43.5 -4.5q35 0 74 9t112 44 v154h-106q-76 0 -106.5 -6t-45.5 -21q-14 -14 -18 -35.5t-4 -46.5zM700 1268v309h392v-309h-392z" />
<glyph unicode="&#xe5;" horiz-adv-x="1298" d="M70 317q0 111 16 180.5t55 108.5q41 41 106.5 56.5t166.5 15.5q80 0 158.5 -9.5t166.5 -25.5v78q0 68 -4 90.5t-14 32.5q-8 8 -24.5 12t-43.5 4h-78q-27 0 -43 -4t-24 -12q-10 -10 -13 -26.5t-6 -55.5h-372q2 152 17.5 217t51.5 102q35 35 85.5 50.5t131.5 15.5h461 q74 0 127 -15.5t86 -48.5q37 -37 51.5 -98t14.5 -192v-488h125v-305h-529v119q-96 -80 -149 -100.5t-129 -20.5h-127q-76 0 -121 12.5t-78 44.5q-29 29 -47 87.5t-18 174.5zM311 1481q0 70 12.5 117t45.5 75q20 18 51 28.5t80 10.5h291q49 0 79.5 -10t51.5 -29 q33 -29 45 -76t12 -116q0 -70 -12.5 -117t-44.5 -76q-20 -18 -51 -28.5t-80 -10.5h-291q-49 0 -80 10.5t-51 28.5q-33 29 -45.5 76t-12.5 117zM459 356q0 -27 4 -46t16 -31t30.5 -16.5t43.5 -4.5q35 0 74 9t112 44v154h-106q-76 0 -106.5 -6t-45.5 -21q-14 -14 -18 -35.5 t-4 -46.5zM543 1481q0 -18 3 -26.5t9 -14.5q8 -8 20.5 -9t30.5 -1h78q18 0 30.5 1t20.5 9q6 6 9.5 14t3.5 27q0 18 -3.5 26.5t-9.5 14.5q-8 8 -20.5 9t-30.5 1h-78q-18 0 -30.5 -1t-20.5 -9q-6 -6 -9 -14.5t-3 -26.5z" />
<glyph unicode="&#xe6;" horiz-adv-x="1892" d="M70 317q0 111 16 180.5t55 108.5q41 41 106.5 56.5t166.5 15.5q80 0 158.5 -9.5t166.5 -25.5v78q0 68 -4 90.5t-14 32.5q-8 8 -24.5 12t-43.5 4h-78q-27 0 -43 -4t-24 -12q-10 -10 -13 -26.5t-6 -55.5h-372q2 152 17.5 217t51.5 102q35 35 85.5 50.5t131.5 15.5h351 q76 0 123 -22.5t84 -71.5q35 49 83 71.5t123 22.5h332q90 0 140.5 -16.5t89.5 -57.5q57 -57 72.5 -156.5t15.5 -341.5v-14q0 -37 -12.5 -51t-53.5 -14h-608q0 -117 6 -155t14 -46q10 -10 34 -14.5t71 -4.5h67q57 0 79 3.5t30 15.5q6 8 9 35.5t3 75.5h361q0 -123 -17.5 -206 t-58.5 -124q-27 -27 -72 -51.5t-149 -24.5h-441q-90 0 -140 16.5t-89 57.5q-18 18 -33.5 38.5t-28.5 47.5q-125 -106 -184 -134t-143 -28h-127q-76 0 -121 12.5t-78 44.5q-29 29 -47 87.5t-18 174.5zM459 356q0 -27 4 -46t16 -31t30.5 -16.5t43.5 -4.5h2q35 0 75 10.5 t120 48.5q-2 31 -5.5 68t-5.5 80h-106q-76 0 -106.5 -6t-45.5 -21q-14 -14 -18 -35.5t-4 -46.5zM1143 672h295q0 88 -5.5 130t-13.5 50q-8 10 -26.5 14t-65.5 4h-59q-47 0 -70.5 -4t-34.5 -14q-10 -10 -15 -45t-5 -135z" />
<glyph unicode="&#xe7;" horiz-adv-x="1198" d="M72 573q0 248 26.5 345.5t83.5 154.5q39 41 89.5 57.5t140.5 16.5h424q104 0 149 -24.5t72 -51.5q41 -41 58.5 -132t17.5 -232h-371q0 53 -4 82.5t-15 39.5q-10 10 -24 14.5t-47 4.5h-109q-33 0 -48 -3t-23 -16q-8 -10 -14.5 -58t-6.5 -198t6 -197.5t15 -58.5 q8 -12 23 -15t48 -3h113q33 0 47 4t25 14q10 10 14 40t4 100h371q0 -158 -17.5 -249t-58.5 -132q-27 -27 -72 -51.5t-149 -24.5h-428q-90 0 -140.5 16.5t-89.5 57.5q-57 57 -83.5 154.5t-26.5 344.5zM279 -297h299q18 0 27 2t13 6t6.5 12.5t2.5 22.5t-2 22.5t-7 12.5 q-4 4 -13 6t-27 2h-101v162h240q49 0 79.5 -7t47.5 -24q18 -18 28.5 -62t10.5 -132t-10.5 -121t-28.5 -51t-51 -25.5t-82 -7.5h-289l-143 129v53z" />
<glyph unicode="&#xe8;" horiz-adv-x="1212" d="M72 573q0 248 26.5 345.5t83.5 154.5q39 41 89.5 57.5t140.5 16.5h407q90 0 140.5 -16.5t89.5 -57.5q57 -57 72.5 -156.5t15.5 -341.5v-14q0 -37 -12.5 -51t-53.5 -14h-608q0 -117 6 -155t14 -46q10 -10 34 -14.5t71 -4.5h67q57 0 79 3.5t30 15.5q6 8 9 35.5t3 75.5h361 q0 -123 -17.5 -206t-58.5 -124q-27 -27 -72 -51.5t-149 -24.5h-428q-90 0 -140.5 16.5t-89.5 57.5q-57 57 -83.5 154.5t-26.5 344.5zM139 1526v10h496l172 -260v-10h-268zM463 672h295q0 88 -5 130t-14 50q-8 10 -26.5 14t-65.5 4h-59q-47 0 -70.5 -4t-34.5 -14 q-10 -10 -15 -45t-5 -135z" />
<glyph unicode="&#xe9;" horiz-adv-x="1212" d="M72 573q0 248 26.5 345.5t83.5 154.5q39 41 89.5 57.5t140.5 16.5h407q90 0 140.5 -16.5t89.5 -57.5q57 -57 72.5 -156.5t15.5 -341.5v-14q0 -37 -12.5 -51t-53.5 -14h-608q0 -117 6 -155t14 -46q10 -10 34 -14.5t71 -4.5h67q57 0 79 3.5t30 15.5q6 8 9 35.5t3 75.5h361 q0 -123 -17.5 -206t-58.5 -124q-27 -27 -72 -51.5t-149 -24.5h-428q-90 0 -140.5 16.5t-89.5 57.5q-57 57 -83.5 154.5t-26.5 344.5zM422 1266v10l172 260h496v-10l-400 -260h-268zM463 672h295q0 88 -5 130t-14 50q-8 10 -26.5 14t-65.5 4h-59q-47 0 -70.5 -4t-34.5 -14 q-10 -10 -15 -45t-5 -135z" />
<glyph unicode="&#xea;" horiz-adv-x="1212" d="M72 573q0 248 26.5 345.5t83.5 154.5q39 41 89.5 57.5t140.5 16.5h407q90 0 140.5 -16.5t89.5 -57.5q57 -57 72.5 -156.5t15.5 -341.5v-14q0 -37 -12.5 -51t-53.5 -14h-608q0 -117 6 -155t14 -46q10 -10 34 -14.5t71 -4.5h67q57 0 79 3.5t30 15.5q6 8 9 35.5t3 75.5h361 q0 -123 -17.5 -206t-58.5 -124q-27 -27 -72 -51.5t-149 -24.5h-428q-90 0 -140.5 16.5t-89.5 57.5q-57 57 -83.5 154.5t-26.5 344.5zM164 1266v10l289 260h331l289 -260v-10h-348l-111 96l-110 -96h-340zM463 672h295q0 88 -5 130t-14 50q-8 10 -26.5 14t-65.5 4h-59 q-47 0 -70.5 -4t-34.5 -14q-10 -10 -15 -45t-5 -135z" />
<glyph unicode="&#xeb;" horiz-adv-x="1212" d="M72 573q0 248 26.5 345.5t83.5 154.5q39 41 89.5 57.5t140.5 16.5h407q90 0 140.5 -16.5t89.5 -57.5q57 -57 72.5 -156.5t15.5 -341.5v-14q0 -37 -12.5 -51t-53.5 -14h-608q0 -117 6 -155t14 -46q10 -10 34 -14.5t71 -4.5h67q57 0 79 3.5t30 15.5q6 8 9 35.5t3 75.5h361 q0 -123 -17.5 -206t-58.5 -124q-27 -27 -72 -51.5t-149 -24.5h-428q-90 0 -140.5 16.5t-89.5 57.5q-57 57 -83.5 154.5t-26.5 344.5zM168 1268v309h391v-309h-391zM463 672h295q0 88 -5 130t-14 50q-8 10 -26.5 14t-65.5 4h-59q-47 0 -70.5 -4t-34.5 -14q-10 -10 -15 -45 t-5 -135zM670 1268v309h391v-309h-391z" />
<glyph unicode="&#xec;" horiz-adv-x="782" d="M-94 1526v10h495l172 -260v-10h-268zM68 0v305h137v537h-137v305h542v-846h138v-301h-680z" />
<glyph unicode="&#xed;" horiz-adv-x="782" d="M68 0v305h137v537h-137v305h542v-846h138v-301h-680zM188 1266v10l172 260h496v-10l-399 -260h-269z" />
<glyph unicode="&#xee;" horiz-adv-x="782" d="M-70 1266v10l289 260h332l289 -260v-10h-348l-111 96l-111 -96h-340zM68 0v305h137v537h-137v305h542v-846h138v-301h-680z" />
<glyph unicode="&#xef;" horiz-adv-x="782" d="M-66 1268v309h392v-309h-392zM68 0v305h137v537h-137v305h542v-846h138v-301h-680zM436 1268v309h391v-309h-391z" />
<glyph unicode="&#xf0;" horiz-adv-x="1245" d="M72 512q0 182 26.5 281.5t83.5 156.5q39 41 89.5 57.5t140.5 16.5h80q76 0 128 -21.5t148 -99.5q-2 94 -7 135t-13 76q-2 12 -8.5 27.5t-18.5 36.5l-326 -82v247l195 50l-96 153h305l78 -80l301 76v-248l-119 -30q33 -41 51 -74t29 -60q16 -45 23 -158.5t7 -398.5 q0 -229 -26.5 -335.5t-83.5 -163.5q-39 -41 -89 -57.5t-141 -16.5h-417q-90 0 -140.5 16.5t-89.5 57.5q-57 57 -83.5 156.5t-26.5 281.5zM471 512q0 -104 6 -144t15 -51q8 -12 23 -15t48 -3h115q33 0 48 4t24 14q8 10 14 58.5t6 197.5v117q-47 20 -80 27.5t-65 7.5h-62 q-33 0 -48 -3t-23 -15q-8 -10 -14.5 -50.5t-6.5 -144.5z" />
<glyph unicode="&#xf1;" horiz-adv-x="1415" d="M68 0v305h131v537h-131v305h536v-170q111 111 167 141.5t144 30.5h66q74 0 127 -15.5t86 -48.5q37 -37 51.5 -98t14.5 -192v-490h124v-305h-610v301h80v438q0 33 -5 50.5t-15 27.5t-26.5 15.5t-45.5 5.5h-10q-29 0 -63 -6.5t-85 -22.5v-508h80v-301h-616zM319 1276v127 q0 55 9.5 87t29.5 52q14 14 40 25.5t71 11.5h59q29 0 51.5 -2t57.5 -10l240 -60l36 68h226v-127q0 -55 -9.5 -87t-29.5 -52q-14 -14 -40 -25.5t-71 -11.5h-59q-29 0 -51.5 2t-57.5 10l-239 59l-37 -67h-226z" />
<glyph unicode="&#xf2;" horiz-adv-x="1241" d="M72 573q0 227 26.5 335t83.5 165q39 41 89.5 57.5t140.5 16.5h417q90 0 140.5 -16.5t89.5 -57.5q57 -57 83.5 -164.5t26.5 -335.5q0 -229 -26.5 -335.5t-83.5 -163.5q-39 -41 -89 -57.5t-141 -16.5h-417q-90 0 -140.5 16.5t-89.5 57.5q-57 57 -83.5 164.5t-26.5 334.5z M145 1526v10h496l172 -260v-10h-268zM471 573q0 -150 6 -197.5t15 -58.5q8 -12 23 -15t48 -3h115q33 0 48 4t24 14q8 10 14 58.5t6 197.5q0 150 -6 198t-14 58t-23.5 14.5t-48.5 4.5h-115q-33 0 -48 -3t-23 -16q-8 -10 -14.5 -58t-6.5 -198z" />
<glyph unicode="&#xf3;" horiz-adv-x="1241" d="M72 573q0 227 26.5 335t83.5 165q39 41 89.5 57.5t140.5 16.5h417q90 0 140.5 -16.5t89.5 -57.5q57 -57 83.5 -164.5t26.5 -335.5q0 -229 -26.5 -335.5t-83.5 -163.5q-39 -41 -89 -57.5t-141 -16.5h-417q-90 0 -140.5 16.5t-89.5 57.5q-57 57 -83.5 164.5t-26.5 334.5z M428 1266v10l172 260h496v-10l-400 -260h-268zM471 573q0 -150 6 -197.5t15 -58.5q8 -12 23 -15t48 -3h115q33 0 48 4t24 14q8 10 14 58.5t6 197.5q0 150 -6 198t-14 58t-23.5 14.5t-48.5 4.5h-115q-33 0 -48 -3t-23 -16q-8 -10 -14.5 -58t-6.5 -198z" />
<glyph unicode="&#xf4;" horiz-adv-x="1241" d="M72 573q0 227 26.5 335t83.5 165q39 41 89.5 57.5t140.5 16.5h417q90 0 140.5 -16.5t89.5 -57.5q57 -57 83.5 -164.5t26.5 -335.5q0 -229 -26.5 -335.5t-83.5 -163.5q-39 -41 -89 -57.5t-141 -16.5h-417q-90 0 -140.5 16.5t-89.5 57.5q-57 57 -83.5 164.5t-26.5 334.5z M170 1266v10l289 260h332l288 -260v-10h-348l-110 96l-111 -96h-340zM471 573q0 -150 6 -197.5t15 -58.5q8 -12 23 -15t48 -3h115q33 0 48 4t24 14q8 10 14 58.5t6 197.5q0 150 -6 198t-14 58t-23.5 14.5t-48.5 4.5h-115q-33 0 -48 -3t-23 -16q-8 -10 -14.5 -58t-6.5 -198z " />
<glyph unicode="&#xf5;" horiz-adv-x="1241" d="M72 573q0 227 26.5 335t83.5 165q39 41 89.5 57.5t140.5 16.5h417q90 0 140.5 -16.5t89.5 -57.5q57 -57 83.5 -164.5t26.5 -335.5q0 -229 -26.5 -335.5t-83.5 -163.5q-39 -41 -89 -57.5t-141 -16.5h-417q-90 0 -140.5 16.5t-89.5 57.5q-57 57 -83.5 164.5t-26.5 334.5z M215 1276v127q0 55 9 87t30 52q14 14 39.5 25.5t71.5 11.5h59q29 0 51.5 -2t56.5 -10l240 -60l37 68h225v-127q0 -55 -9 -87t-30 -52q-14 -14 -39.5 -25.5t-70.5 -11.5h-60q-29 0 -51 2t-57 10l-240 59l-37 -67h-225zM471 573q0 -150 6 -197.5t15 -58.5q8 -12 23 -15t48 -3 h115q33 0 48 4t24 14q8 10 14 58.5t6 197.5q0 150 -6 198t-14 58t-23.5 14.5t-48.5 4.5h-115q-33 0 -48 -3t-23 -16q-8 -10 -14.5 -58t-6.5 -198z" />
<glyph unicode="&#xf6;" horiz-adv-x="1241" d="M72 573q0 227 26.5 335t83.5 165q39 41 89.5 57.5t140.5 16.5h417q90 0 140.5 -16.5t89.5 -57.5q57 -57 83.5 -164.5t26.5 -335.5q0 -229 -26.5 -335.5t-83.5 -163.5q-39 -41 -89 -57.5t-141 -16.5h-417q-90 0 -140.5 16.5t-89.5 57.5q-57 57 -83.5 164.5t-26.5 334.5z M174 1268v309h391v-309h-391zM471 573q0 -150 6 -197.5t15 -58.5q8 -12 23 -15t48 -3h115q33 0 48 4t24 14q8 10 14 58.5t6 197.5q0 150 -6 198t-14 58t-23.5 14.5t-48.5 4.5h-115q-33 0 -48 -3t-23 -16q-8 -10 -14.5 -58t-6.5 -198zM676 1268v309h391v-309h-391z" />
<glyph unicode="&#xf7;" horiz-adv-x="1077" d="M82 602v283h913v-283h-913zM369 219v293h340v-293h-340zM369 983v293h340v-293h-340z" />
<glyph unicode="&#xf8;" horiz-adv-x="1241" d="M72 573q0 227 26.5 335t83.5 165q39 41 89.5 57.5t140.5 16.5h331l54 102h325l-82 -159l19 -17q57 -57 83.5 -164.5t26.5 -335.5q0 -229 -26.5 -335.5t-83.5 -163.5q-39 -41 -89 -57.5t-141 -16.5h-331l-52 -102h-325l80 157q-4 2 -9.5 8.5t-9.5 10.5q-57 57 -83.5 164.5 t-26.5 334.5zM451 438l182 410h-90q-33 0 -48.5 -3t-23.5 -16q-8 -10 -14 -58t-6 -198v-135zM608 299h90q33 0 48.5 4t23.5 14t14.5 58.5t6.5 197.5v76t-3 60z" />
<glyph unicode="&#xf9;" horiz-adv-x="1386" d="M31 842v305h530v-739q0 -33 5 -50.5t16 -27.5q10 -10 26.5 -15.5t44.5 -5.5h11q29 0 61.5 6.5t85.5 20.5v510h-131v301h537v-842h131v-305h-537v168q-111 -111 -168 -140.5t-143 -29.5h-66q-74 0 -127 15.5t-86 47.5q-37 37 -51 98.5t-14 192.5v490h-125zM186 1526v10 h496l172 -260v-10h-268z" />
<glyph unicode="&#xfa;" horiz-adv-x="1386" d="M31 842v305h530v-739q0 -33 5 -50.5t16 -27.5q10 -10 26.5 -15.5t44.5 -5.5h11q29 0 61.5 6.5t85.5 20.5v510h-131v301h537v-842h131v-305h-537v168q-111 -111 -168 -140.5t-143 -29.5h-66q-74 0 -127 15.5t-86 47.5q-37 37 -51 98.5t-14 192.5v490h-125zM469 1266v10 l172 260h496v-10l-400 -260h-268z" />
<glyph unicode="&#xfb;" horiz-adv-x="1386" d="M31 842v305h530v-739q0 -33 5 -50.5t16 -27.5q10 -10 26.5 -15.5t44.5 -5.5h11q29 0 61.5 6.5t85.5 20.5v510h-131v301h537v-842h131v-305h-537v168q-111 -111 -168 -140.5t-143 -29.5h-66q-74 0 -127 15.5t-86 47.5q-37 37 -51 98.5t-14 192.5v490h-125zM211 1266v10 l289 260h331l289 -260v-10h-348l-110 96l-111 -96h-340z" />
<glyph unicode="&#xfc;" horiz-adv-x="1386" d="M31 842v305h530v-739q0 -33 5 -50.5t16 -27.5q10 -10 26.5 -15.5t44.5 -5.5h11q29 0 61.5 6.5t85.5 20.5v510h-131v301h537v-842h131v-305h-537v168q-111 -111 -168 -140.5t-143 -29.5h-66q-74 0 -127 15.5t-86 47.5q-37 37 -51 98.5t-14 192.5v490h-125zM215 1268v309 h391v-309h-391zM717 1268v309h391v-309h-391z" />
<glyph unicode="&#xfd;" horiz-adv-x="1384" d="M18 842v305h641v-305h-112l162 -467h10l137 467h-113v305h623v-305h-113l-389 -989q-45 -111 -115.5 -158t-218.5 -47q-82 0 -155.5 4t-163.5 12v297h227q23 0 36 8t22 31l-365 842h-113zM510 1266v10l172 260h496v-10l-400 -260h-268z" />
<glyph unicode="&#xfe;" horiz-adv-x="1339" d="M39 -43h131v1284h-131v305h536v-561q104 100 160 132t129 32h66q90 0 145 -16.5t94 -55.5q55 -55 77 -159.5t22 -333.5t-29 -331.5t-86 -160.5q-39 -39 -95.5 -56.5t-135.5 -17.5h-76q-74 0 -130.5 22.5t-140.5 100.5v-188h142v-301h-678v305zM575 348q33 -12 64 -18 t57 -6h47q35 0 56.5 5t36.5 19q18 18 25 62.5t7 173.5t-7 173t-25 62q-14 14 -36 19.5t-57 5.5h-36q-31 0 -63 -7.5t-69 -21.5v-467z" />
<glyph unicode="&#xff;" horiz-adv-x="1384" d="M18 842v305h641v-305h-112l162 -467h10l137 467h-113v305h623v-305h-113l-389 -989q-45 -111 -115.5 -158t-218.5 -47q-82 0 -155.5 4t-163.5 12v297h227q23 0 36 8t22 31l-365 842h-113zM256 1268v309h391v-309h-391zM758 1268v309h391v-309h-391z" />
<glyph unicode="&#x152;" horiz-adv-x="2140" d="M78 717q0 268 38 399t111 205q63 63 156.5 88t247.5 25h1425v-523h-358v207h-346v-244h297v-294h-297v-265h352v234h358v-549h-1431q-154 0 -247 24.5t-157 88.5q-74 74 -111.5 205t-37.5 399zM520 717q0 -215 8.5 -280.5t24.5 -82.5q14 -14 46 -20t101 -6h232v778h-232 q-70 0 -101.5 -6t-45.5 -21q-16 -16 -24.5 -82.5t-8.5 -279.5z" />
<glyph unicode="&#x153;" horiz-adv-x="1925" d="M76 573q0 227 26.5 335t83.5 165q39 41 89.5 57.5t140.5 16.5h356q88 0 131 -26.5t76 -65.5q31 39 75 65.5t132 26.5h346q90 0 140 -16.5t89 -57.5q57 -57 72.5 -156.5t15.5 -341.5v-14q0 -37 -12 -51t-53 -14h-608q0 -117 6 -155t14 -46q10 -10 33.5 -14.5t70.5 -4.5h68 q57 0 78.5 3.5t30.5 15.5q6 8 9 35.5t3 75.5h360q0 -123 -17 -206t-58 -124q-27 -27 -72 -51.5t-150 -24.5h-366q-88 0 -132 25.5t-75 64.5q-33 -39 -76 -64.5t-131 -25.5h-356q-90 0 -140.5 16.5t-89.5 57.5q-57 57 -83.5 164.5t-26.5 334.5zM475 573q0 -150 6 -197.5 t15 -58.5q8 -12 23.5 -15t47.5 -3h115q33 0 48 4t24 14q8 10 14 58.5t6 197.5q0 150 -6 198t-14 58t-23.5 14.5t-48.5 4.5h-115q-33 0 -48 -3t-23 -16q-8 -10 -14.5 -58t-6.5 -198zM1176 672h294q0 88 -5 130t-13 50q-8 10 -26.5 14t-65.5 4h-60q-47 0 -70.5 -4t-33.5 -14 t-15 -45t-5 -135z" />
<glyph unicode="&#x178;" horiz-adv-x="1542" d="M23 1114v320h720v-316h-125l158 -246h8l170 246h-125v316h691v-320h-119l-424 -565v-230h162v-319h-744v319h162v224l-416 571h-118zM338 1554v310h391v-310h-391zM840 1554v310h391v-310h-391z" />
<glyph unicode="&#x2c6;" horiz-adv-x="1024" d="M55 1266v10l289 260h332l289 -260v-10h-349l-110 96l-111 -96h-340z" />
<glyph unicode="&#x2dc;" horiz-adv-x="1024" d="M61 1276v127q0 55 9.5 87t29.5 52q14 14 40 25.5t71 11.5h59q29 0 51.5 -2t57.5 -10l239 -60l37 68h226v-127q0 -55 -9.5 -87t-29.5 -52q-14 -14 -40 -25.5t-71 -11.5h-59q-29 0 -51.5 2t-57.5 10l-239 59l-37 -67h-226z" />
<glyph unicode="&#x2000;" horiz-adv-x="933" />
<glyph unicode="&#x2001;" horiz-adv-x="1866" />
<glyph unicode="&#x2002;" horiz-adv-x="933" />
<glyph unicode="&#x2003;" horiz-adv-x="1866" />
<glyph unicode="&#x2004;" horiz-adv-x="622" />
<glyph unicode="&#x2005;" horiz-adv-x="466" />
<glyph unicode="&#x2006;" horiz-adv-x="311" />
<glyph unicode="&#x2007;" horiz-adv-x="311" />
<glyph unicode="&#x2008;" horiz-adv-x="233" />
<glyph unicode="&#x2009;" horiz-adv-x="373" />
<glyph unicode="&#x200a;" horiz-adv-x="103" />
<glyph unicode="&#x2010;" horiz-adv-x="794" d="M84 516v311h627v-311h-627z" />
<glyph unicode="&#x2011;" horiz-adv-x="794" d="M84 516v311h627v-311h-627z" />
<glyph unicode="&#x2012;" horiz-adv-x="794" d="M84 516v311h627v-311h-627z" />
<glyph unicode="&#x2013;" horiz-adv-x="1081" d="M84 520v303h913v-303h-913z" />
<glyph unicode="&#x2014;" horiz-adv-x="2002" d="M84 522v299h1835v-299h-1835z" />
<glyph unicode="&#x2018;" horiz-adv-x="542" d="M70 717v303q0 94 26.5 152.5t89.5 113.5l203 174l113 -88l-146 -186q-20 -27 -27 -43.5t-7 -44.5v-2h127v-379h-379z" />
<glyph unicode="&#x2019;" horiz-adv-x="542" d="M41 778l145 187q20 27 27.5 43t7.5 45v2h-127v379h379v-304q0 -94 -26.5 -152t-90.5 -114l-202 -174z" />
<glyph unicode="&#x201a;" horiz-adv-x="542" d="M41 -276l145 186q20 27 27.5 43t7.5 45v2h-121v379h373v-303q0 -94 -26.5 -152.5t-90.5 -113.5l-202 -175z" />
<glyph unicode="&#x201c;" horiz-adv-x="1036" d="M70 717v303q0 94 26.5 152.5t89.5 113.5l203 174l113 -88l-146 -186q-20 -27 -27 -43.5t-7 -44.5v-2h120v-379h-372zM563 717v303q0 94 26.5 152.5t90.5 113.5l203 174l112 -88l-145 -186q-20 -27 -27.5 -43.5t-7.5 -44.5v-2h121v-379h-373z" />
<glyph unicode="&#x201d;" horiz-adv-x="1036" d="M41 778l145 187q20 27 27.5 43t7.5 45v2h-121v379h373v-304q0 -94 -26.5 -152t-90.5 -114l-202 -174zM535 778l145 187q20 27 27.5 43t7.5 45v2h-121v379h373v-304q0 -94 -27 -152t-90 -114l-203 -174z" />
<glyph unicode="&#x201e;" horiz-adv-x="1036" d="M41 -276l145 186q20 27 27.5 43t7.5 45v2h-121v379h373v-303q0 -94 -26.5 -152.5t-90.5 -113.5l-202 -175zM535 -276l145 186q20 27 27.5 43t7.5 45v2h-121v379h373v-303q0 -94 -27 -152.5t-90 -113.5l-203 -175z" />
<glyph unicode="&#x2022;" horiz-adv-x="1073" d="M164 743q0 168 16.5 233.5t55.5 102.5q31 27 67.5 37t102.5 10h262q66 0 102.5 -10t67.5 -37q39 -37 55 -102.5t16 -233.5t-16 -233.5t-55 -101.5q-31 -29 -68 -39.5t-102 -10.5h-262q-66 0 -103 10.5t-67 39.5q-39 37 -55.5 102t-16.5 233z" />
<glyph unicode="&#x2026;" horiz-adv-x="1536" d="M70 0v373h372v-373h-372zM582 0v373h372v-373h-372zM1094 0v373h372v-373h-372z" />
<glyph unicode="&#x202f;" horiz-adv-x="373" />
<glyph unicode="&#x2039;" horiz-adv-x="770" d="M61 477v193l252 280h416l-334 -377l334 -376h-416z" />
<glyph unicode="&#x203a;" horiz-adv-x="770" d="M41 197l334 376l-334 377h416l252 -280v-193l-252 -280h-416z" />
<glyph unicode="&#x205f;" horiz-adv-x="466" />
<glyph unicode="&#x20ac;" horiz-adv-x="1581" d="M98 422v240h140v110h-140v240h152q14 141 44 221t75 123q41 41 98 59.5t168 18.5h489q104 0 167 -15.5t104 -56.5q57 -57 78.5 -178t23.5 -318h-383q-4 127 -9 180.5t-15 63.5q-8 8 -29 12t-60 4h-223q-47 0 -66.5 -4t-27.5 -12q-6 -6 -12 -27.5t-8 -83.5h292v-223h-297 v-119h297v-223h-292q2 -63 8 -83.5t12 -26.5q8 -8 27.5 -12.5t66.5 -4.5h223q45 0 62.5 4t26.5 13q10 10 15 60t9 189h383q-2 -199 -23.5 -320.5t-78.5 -178.5q-41 -41 -101.5 -57.5t-169.5 -16.5h-489q-111 0 -168 18.5t-98 59.5q-45 43 -75 123t-44 221h-152z" />
<glyph unicode="&#x2122;" horiz-adv-x="2168" d="M72 1108v326h807v-326h-189v149h-92v-454h88v-178h-424v178h92v454h-94v-149h-188zM944 625v178h80v450h-80v181h438q27 0 40.5 -10.5t19.5 -37.5l71 -358h11l71 358q6 27 19.5 37.5t40.5 10.5h432v-181h-80v-450h80v-178h-387v178h63v377h-12l-121 -510 q-6 -25 -18.5 -35t-32.5 -10h-147q-23 0 -35.5 10t-18.5 35l-123 510h-12v-377h64v-178h-363z" />
<glyph unicode="&#xe000;" horiz-adv-x="1146" d="M0 0v1147h1147v-1147h-1147z" />
<glyph unicode="&#xfb01;" horiz-adv-x="1636" d="M68 0v305h131v537h-131v305h131v47q0 106 16 172t57 107q39 39 94.5 56t159.5 17h287v-291h-129q-33 0 -46 -3t-22 -11q-8 -8 -11 -23.5t-3 -46.5v-28h193v-301h-191v-537h141v-305h-677zM922 0v305h137v537h-137v305h542v-846h138v-301h-680zM1038 1286v311h408v-311 h-408z" />
<glyph unicode="&#xfb02;" horiz-adv-x="1611" d="M68 0v305h131v537h-131v305h131v47q0 106 16 172t57 107q39 39 94.5 56t159.5 17h287v-291h-129q-33 0 -46 -3t-22 -11q-8 -8 -11 -23.5t-3 -46.5v-28h193v-301h-191v-537h141v-305h-677zM897 0v305h137v936h-137v305h543v-1245h137v-301h-680z" />
</font>
</defs>
</svg>
