<?xml version="1.0" encoding="utf-8"?>
<!-- Generator: Adobe Illustrator 16.0.3, SVG Export Plug-In . SVG Version: 6.00 Build 0)  -->
<!DOCTYPE svg PUBLIC "-//W3C//DTD SVG 1.1//EN" "http://www.w3.org/Graphics/SVG/1.1/DTD/svg11.dtd">
<svg version="1.1" id="Ebene_1" xmlns="http://www.w3.org/2000/svg" xmlns:xlink="http://www.w3.org/1999/xlink" x="0px" y="0px"
	 width="40.897px" height="40.895px" viewBox="0 0 40.897 40.895" enable-background="new 0 0 40.897 40.895" xml:space="preserve">
<g>
	<g>
		<path fill="#414141" d="M20.448,0C9.155,0,0,9.155,0,20.446c0,11.293,9.155,20.448,20.448,20.448s20.449-9.155,20.449-20.448
			C40.897,9.155,31.741,0,20.448,0z M18.784,24.376c-0.536,2.348-1.062,4.609-2.207,6.395c-0.35,0.546-0.703,1.234-1.303,1.529
			c-0.887-4.558,0.965-8.395,1.698-12.225c-0.935-1.901-0.354-5.125,1.642-5.489c2.895-0.53,2.132,2.96,1.641,4.584
			c-0.27,0.889-0.754,1.74-0.68,2.716c0.16,2.059,2.749,2.19,4.074,1.133c1.9-1.517,2.449-4.444,2.266-6.849
			c-0.283-3.662-4.432-5.483-8.093-4.019c-1.886,0.755-3.601,2.489-3.849,5.037c-0.131,1.342,0.15,2.414,0.679,3.169
			c0.08,0.115,0.355,0.318,0.396,0.624c0.083,0.621-0.285,1.29-0.622,1.753c-1.876-0.541-2.845-2.225-3-4.356
			c-0.353-4.851,3.628-8.542,8.318-8.886c5.003-0.367,8.972,2.522,9.338,6.734c0.274,3.131-0.837,6.284-2.602,7.979
			c-1.327,1.273-4.147,2.521-6.452,1.303C19.517,25.237,19.291,24.907,18.784,24.376z"/>
	</g>
</g>
</svg>
