<?xml version="1.0" encoding="utf-8"?>
<!-- Generator: Adobe Illustrator 16.0.3, SVG Export Plug-In . SVG Version: 6.00 Build 0)  -->
<!DOCTYPE svg PUBLIC "-//W3C//DTD SVG 1.1//EN" "http://www.w3.org/Graphics/SVG/1.1/DTD/svg11.dtd">
<svg version="1.1" id="Ebene_1" xmlns="http://www.w3.org/2000/svg" xmlns:xlink="http://www.w3.org/1999/xlink" x="0px" y="0px"
	 width="40.897px" height="40.894px" viewBox="0 0 40.897 40.894" enable-background="new 0 0 40.897 40.894" xml:space="preserve">
<g>
	<path fill="#414141" d="M20.449,0C9.155,0,0,9.156,0,20.447c0,11.292,9.155,20.447,20.449,20.447
		c11.292,0,20.449-9.155,20.449-20.447C40.897,9.156,31.741,0,20.449,0z M34.591,19.68c-0.643,0.755-1.6,1.234-2.67,1.234
		c-0.24,0-0.475-0.025-0.702-0.07c-0.483,2.688-2.278,5.281-4.852,6.787c-12.587,7.36-20.061-2.923-20.061-2.923
		c1.323,1.228,3.112,1.911,5.061,1.911c2.155,0,4.109-0.852,5.464-2.317c0,0-1.972,0.282-2.083-1.117
		c-0.075-0.956,1.093-1.267,1.093-1.267s-1.306,0.219-2.311-0.477c-0.76-0.525-1.125-1.26-1.125-1.26s0.344-0.425,0.817-0.593
		c0.458-0.163,1.063-0.209,1.063-0.209s-0.968-0.088-2.079-0.967c-1.112-0.879-0.991-1.9-0.991-1.9s0.426-0.103,0.781-0.154
		c0.379-0.055,0.869-0.055,0.869-0.055s-1.188-0.505-1.728-1.374c-0.855-1.376-0.623-2.16-0.623-2.16s6.059,2.314,7.482,3.31
		c1.333,0.933,1.921,1.685,1.921,1.685s0.455-1.773,1.599-3.706c1.145-1.933,2.641-3.237,2.759-3.105
		c0.117,0.131-0.19,0.585-0.19,0.585s1.877-1.174,2.046-0.886c0.177,0.301-1.086,1.011-1.086,1.011s2.274-1.055,2.392-0.373
		c0.117,0.681-2.347,1.179-2.347,1.179s3.345-0.439,5.479,3.669c0.295,0.567,0.501,1.16,0.628,1.768
		c0.494,0.183,1.029,0.283,1.588,0.283c0.625,0,1.221-0.125,1.764-0.352c-0.605,0.884-1.623,1.465-2.776,1.465
		c-0.144,0-0.286-0.01-0.425-0.027c0,0.028,0,0.057,0,0.084c0.787,0.229,1.618,0.353,2.479,0.353
		C34.085,19.713,34.339,19.702,34.591,19.68z"/>
</g>
</svg>
